<svg id="SvgjsSvg1001" width="256" height="256" xmlns="http://www.w3.org/2000/svg" version="1.1" xmlns:xlink="http://www.w3.org/1999/xlink" xmlns:svgjs="http://svgjs.com/svgjs"><defs id="SvgjsDefs1002"></defs><g id="SvgjsG1008"><svg xmlns="http://www.w3.org/2000/svg" data-name="Layer 1" viewBox="0 0 64 64" width="256" height="256"><path fill="#3b4551" d="M32 52.41A20.42 20.42 0 0 1 13.07 39.64H7.77a6.26 6.26 0 0 1 1.7 4.29v4.35a6.26 6.26 0 0 0 6.26 6.26h4.35a6.26 6.26 0 0 1 4.43 1.83l3.07 3.07a6.26 6.26 0 0 0 8.85 0l3.07-3.07a6.25 6.25 0 0 1 4.42-1.83h4.35a6.26 6.26 0 0 0 6.26-6.26V43.92a6.26 6.26 0 0 1 1.65-4.24H50.91A20.42 20.42 0 0 1 32 52.41zM32 11.59A20.42 20.42 0 0 1 50.93 24.36h5.29a6.26 6.26 0 0 1-1.7-4.29V15.73a6.26 6.26 0 0 0-6.26-6.26H43.92A6.26 6.26 0 0 1 39.5 7.64L36.43 4.56a6.26 6.26 0 0 0-8.85 0L24.5 7.64a6.25 6.25 0 0 1-4.42 1.83H15.73a6.26 6.26 0 0 0-6.26 6.26v4.35a6.26 6.26 0 0 1-1.65 4.24h5.27A20.42 20.42 0 0 1 32 11.59z" class="color3b4551 svgShape"></path><path fill="#3366cc" d="M14.71 32a17.26 17.26 0 0 1 1-5.71H1.7a1.18 1.18 0 0 0-1 1.82l2 3.18a1.18 1.18 0 0 1 0 1.27L.68 35.85a1.18 1.18 0 0 0 1 1.81h14A17.27 17.27 0 0 1 14.71 32zM61.24 32.71a1.18 1.18 0 0 1 0-1.27l2.08-3.29a1.18 1.18 0 0 0-1-1.81h-14a17.36 17.36 0 0 1 0 11.37h14a1.18 1.18 0 0 0 1-1.82z" class="color36c svgShape"></path><polygon fill="#3366cc" points="24.16 25.47 24.16 29.89 25.24 29.89 25.24 24.29 24.39 24.29 23.07 25 23.31 25.93 24.16 25.47" class="color36c svgShape"></polygon><path fill="#3366cc" d="M28.27 30c1.28 0 2-1.07 2-2.95s-.72-2.83-1.92-2.83-2 1.11-2 2.91S27.1 30 28.27 30zm0-4.84c.75 0 .86 1.2.86 1.92s-.08 2-.86 2c-.53 0-.86-.74-.86-1.92S27.79 25.15 28.31 25.15zM33 30c1.28 0 2-1.07 2-2.95s-.72-2.83-1.92-2.83-2 1.11-2 2.91S31.84 30 33 30zm0-4.84c.75 0 .86 1.2.86 1.92s-.08 2-.86 2c-.53 0-.86-.74-.86-1.92S32.54 25.15 33.06 25.15zM19.78 37.5h1.06v1.23a2.52 2.52 0 0 1-.71.08 1.72 1.72 0 0 1-1.82-1.92A1.77 1.77 0 0 1 20.23 35a2.5 2.5 0 0 1 1.08.21l.2.09.27-.92-.15-.07A3.41 3.41 0 0 0 20.24 34a2.82 2.82 0 0 0-3 2.9 2.65 2.65 0 0 0 2.88 2.83 5 5 0 0 0 1.67-.3l.13 0V36.57H19.78z" class="color36c svgShape"></path><polygon fill="#3366cc" points="23.6 37.25 25.64 37.25 25.64 36.3 23.6 36.3 23.6 35.04 25.75 35.04 25.75 34.08 22.54 34.08 22.54 39.7 25.87 39.7 25.87 38.75 23.6 38.75 23.6 37.25" class="color36c svgShape"></polygon><path fill="#3366cc" d="M29.67 37.73c-.16-.3-2.27-3.65-2.27-3.65h-1V39.7h1s0-3.37 0-3.77c.17.31 2.32 3.77 2.32 3.77h1V34.08h-1S29.66 37.32 29.67 37.73zM34.64 37.37c0 1-.36 1.48-1.08 1.48s-1-.52-1-1.48V34.08H31.46v3.28c0 2.11 1.3 2.43 2.07 2.43 1.38 0 2.17-.9 2.17-2.46V34.08H34.64z" class="color36c svgShape"></path><rect width="1.06" height="5.62" x="36.49" y="34.08" fill="#3366cc" class="color36c svgShape"></rect><path fill="#3366cc" d="M41.66,37.73c-.16-.3-2.27-3.65-2.27-3.65h-1V39.7h1s0-3.37,0-3.77c.17.31,2.32,3.77,2.32,3.77h1V34.08h-1S41.64,37.32,41.66,37.73Z" class="color36c svgShape"></path><polygon fill="#3366cc" points="44.52 38.75 44.52 37.25 46.55 37.25 46.55 36.3 44.52 36.3 44.52 35.04 46.67 35.04 46.67 34.08 43.46 34.08 43.46 39.7 46.79 39.7 46.79 38.75 44.52 38.75" class="color36c svgShape"></polygon><path fill="#3366cc" d="M36.91,29.72l3.58-4.6a.53.53,0,0,0-.23-.82.53.53,0,0,0-.6.17L36.08,29a.55.55,0,0,0,.08.77A.54.54,0,0,0,36.91,29.72Z" class="color36c svgShape"></path><circle cx="39.77" cy="28.71" r="1.08" fill="#3366cc" class="color36c svgShape"></circle><circle cx="36.78" cy="25.47" r="1.08" fill="#3366cc" class="color36c svgShape"></circle></svg></g></svg>