<svg xmlns="http://www.w3.org/2000/svg" data-name="Layer 1" viewBox="0 0 32 32" id="sex"><path fill="#de0a56" d="M29 2h-6v2h3.586l-6.178 6.178a2.4 2.4 0 0 0-2.651.587L16 12.5l-1.757-1.735a2.4 2.4 0 0 0-3.515 0 2.706 2.706 0 0 0 0 3.694L16 20l5.272-5.541a2.708 2.708 0 0 0 .535-2.852L28 5.414V9h2V3a1 1 0 0 0-1-1Z"></path><path fill="#fc448f" d="M14.243 10.765a2.4 2.4 0 0 0-3.515 0 2.706 2.706 0 0 0 0 3.694L16 20v-7.5Z"></path><path fill="#ffa10b" d="M13.272 14.459a2.706 2.706 0 0 0 0-3.694 2.4 2.4 0 0 0-3.515 0L8 12.5l-1.757-1.735a2.4 2.4 0 0 0-3.515 0 2.706 2.706 0 0 0 0 3.694L7 18.949V23H4v2h3v5h2v-5h3v-2H9v-4.051Z"></path><path fill="#f7c889" d="M6.243 10.765a2.4 2.4 0 0 0-3.515 0 2.706 2.706 0 0 0 0 3.694L8 20v-7.5Z"></path></svg>