<svg id="SvgjsSvg1001" width="256" height="256" xmlns="http://www.w3.org/2000/svg" version="1.1" xmlns:xlink="http://www.w3.org/1999/xlink" xmlns:svgjs="http://svgjs.com/svgjs"><defs id="SvgjsDefs1002"></defs><g id="SvgjsG1008"><svg xmlns="http://www.w3.org/2000/svg" viewBox="0 0 24 24" width="256" height="256"><g data-name="Layer 2" fill="#000000" class="color000 svgShape"><circle cx="12" cy="13.5" r="9.25" fill="#d2cfff" class="colord2cfff svgShape"></circle><path fill="#7c5bf0" d="M15 15.75a.787.787 0 01-.237-.038l-3-1A.752.752 0 0111.25 14V10a.75.75 0 011.5 0v3.459l2.487.829A.75.75 0 0115 15.75zM22 7.75a.744.744 0 01-.53-.22l-3-3a.75.75 0 011.06-1.06l3 3A.75.75 0 0122 7.75z" class="color7c5bf0 svgShape"></path><path fill="#7c5bf0" d="M12 22.75a9.25 9.25 0 010-18.5.75.75 0 010 1.5 7.742 7.742 0 101.824.216.75.75 0 01.352-1.459A9.251 9.251 0 0112 22.75zM14 2.75H10a.75.75 0 010-1.5h4a.75.75 0 010 1.5z" class="color7c5bf0 svgShape"></path><path fill="#7c5bf0" d="M12,5.75A.75.75,0,0,1,11.25,5V2a.75.75,0,0,1,1.5,0V5A.75.75,0,0,1,12,5.75Z" class="color7c5bf0 svgShape"></path></g></svg></g></svg>