<svg id="SvgjsSvg1022" width="256" height="256" xmlns="http://www.w3.org/2000/svg" version="1.1" xmlns:xlink="http://www.w3.org/1999/xlink" xmlns:svgjs="http://svgjs.com/svgjs"><defs id="SvgjsDefs1023"></defs><g id="SvgjsG1024"><svg xmlns="http://www.w3.org/2000/svg" viewBox="0 0 512 512" width="256" height="256"><path fill="#434a54" d="M256.004 224.001c-5.891 0-10.664-4.765-10.664-10.656V10.68c0-5.891 4.773-10.672 10.664-10.672s10.664 4.781 10.664 10.672v202.666c0 5.89-4.773 10.655-10.664 10.655z" class="color434A54 svgShape"></path><path fill="#ed5564" d="M152.468 139.098c22.538 0 42.084 12.812 51.771 31.545 9.68-18.733 29.226-31.545 51.764-31.545 22.531 0 42.092 12.812 51.764 31.545 9.688-18.733 29.234-31.545 51.764-31.545 18.594 0 35.141 8.703 45.813 22.264v-1.343c0-82.482-66.873-149.339-149.34-149.339-82.474 0-149.332 66.857-149.332 149.339v1.343c10.664-13.562 27.219-22.264 45.796-22.264z" class="colorED5564 svgShape"></path><path fill="#fecd57" d="M405.344 213.345H106.672c-11.733 0-21.327 9.594-21.327 21.327v255.992c0 11.734 9.594 21.328 21.327 21.328h298.671c11.719 0 21.311-9.594 21.311-21.328V234.672c0-11.733-9.591-21.327-21.31-21.327z" class="colorFECD57 svgShape"></path><path fill="#f5ba45" d="M405.344 490.664H106.672c-11.733 0-21.327-9.594-21.327-21.328v21.328c0 11.734 9.594 21.328 21.327 21.328h298.671c11.719 0 21.311-9.594 21.311-21.328v-21.328c0 11.734-9.591 21.328-21.31 21.328z" class="colorF5BA45 svgShape"></path><path fill="#cbd0d8" d="M309.346 297.546v-73.545H202.669v74.67h.078c0 5.891 4.773 10.671 10.664 10.671s10.663-4.78 10.663-10.671c0 5.891 4.773 10.671 10.672 10.671 5.89 0 10.664-4.78 10.664-10.671 0 5.891 4.773 10.671 10.664 10.671s10.672-4.78 10.672-10.671c0 5.891 4.773 10.671 10.664 10.671 5.889 0 10.654-4.78 10.654-10.671 0 5.891 4.781 10.671 10.688 10.671 5.875 0 10.656-4.78 10.656-10.671 0-.375-.031-.75-.062-1.125z" class="colorCBD0D8 svgShape"></path><path fill="#e5e8ec" d="M309.346 286.89v-73.544H202.669V288h.078c0 5.906 4.773 10.672 10.664 10.672s10.663-4.766 10.663-10.672a10.661 10.661 0 0 0 10.672 10.672c5.89 0 10.664-4.766 10.664-10.672 0 5.906 4.773 10.672 10.664 10.672s10.672-4.766 10.672-10.672c0 5.906 4.773 10.672 10.664 10.672 5.889 0 10.654-4.766 10.654-10.672 0 5.906 4.781 10.672 10.688 10.672 5.875 0 10.656-4.766 10.656-10.672 0-.376-.031-.751-.062-1.11z" class="colorE5E8EC svgShape"></path><path fill="#434a54" d="M224.004 383.995h-85.333c-5.891 0-10.664 4.781-10.664 10.672s4.773 10.672 10.664 10.672h85.333c5.891 0 10.664-4.781 10.664-10.672s-4.773-10.672-10.664-10.672zm-42.662 42.672h-42.67c-5.891 0-10.664 4.781-10.664 10.672 0 5.89 4.773 10.655 10.664 10.655h42.67c5.891 0 10.664-4.766 10.664-10.655 0-5.891-4.774-10.672-10.664-10.672z" class="color434A54 svgShape"></path></svg></g></svg>