<svg id="SvgjsSvg1001" width="256" height="256" xmlns="http://www.w3.org/2000/svg" version="1.1" xmlns:xlink="http://www.w3.org/1999/xlink" xmlns:svgjs="http://svgjs.com/svgjs"><defs id="SvgjsDefs1002"></defs><g id="SvgjsG1008"><svg xmlns="http://www.w3.org/2000/svg" viewBox="0 0 64 64" width="256" height="256"><path fill="#eb8cb3" d="M46,26a2,2,0,0,0-2-2V20a2,2,0,0,0,0-4V12a9,9,0,0,0-18,0v4a2,2,0,0,0,0,4v4a2,2,0,0,0,0,4v5a2,2,0,0,0,0,4v4a2,2,0,0,0,0,4v6H44V45a2,2,0,0,0,0-4V37a2,2,0,0,0,0-4V28A2,2,0,0,0,46,26Z" class="coloreb8cb3 svgShape"></path><rect width="22" height="10" x="24" y="51" fill="#d9176c" class="colord9176c svgShape"></rect><path fill="#f4f4e6" d="M31,13H29V11a5.006,5.006,0,0,1,5-5h1V8H34a3,3,0,0,0-3,3Z" class="colorf4f4e6 svgShape"></path><circle cx="35" cy="18" r="2" fill="#db527d" class="colordb527d svgShape"></circle><circle cx="35" cy="26" r="2" fill="#db527d" class="colordb527d svgShape"></circle><circle cx="35" cy="34" r="2" fill="#db527d" class="colordb527d svgShape"></circle><circle cx="35" cy="42" r="2" fill="#db527d" class="colordb527d svgShape"></circle><rect width="2" height="2" x="38" y="8" fill="#f4f4e6" class="colorf4f4e6 svgShape"></rect><rect width="7" height="2" x="26" y="46" fill="#db527d" class="colordb527d svgShape"></rect><rect width="4" height="2" x="40" y="46" fill="#db527d" class="colordb527d svgShape"></rect><rect width="4" height="6" x="33" y="51" fill="#9b1e5a" class="color9b1e5a svgShape"></rect><path fill="#87cee9" d="M14 53a2 2 0 000 4H8a2 2 0 000 4H24V53zM50 53a2 2 0 010 4h6a2 2 0 010 4H46V53z" class="color87cee9 svgShape"></path><path fill="#32b1cc" d="M20 34H18a3.566 3.566 0 011.292-2.708c.491-.492.708-.733.708-1.3s-.217-.8-.708-1.3a3.482 3.482 0 010-5.415c.49-.49.707-.73.707-1.292s-.217-.8-.707-1.291a3.477 3.477 0 010-5.411c.49-.49.707-.73.707-1.291h2a3.565 3.565 0 01-1.293 2.706C20.217 17.2 20 17.436 20 18s.217.8.707 1.29a3.479 3.479 0 010 5.413c-.49.489-.707.73-.707 1.291s.217.8.708 1.3a3.486 3.486 0 010 5.418C20.217 33.2 20 33.437 20 34zM52 42.007H50c0-.564-.217-.8-.708-1.3a3.486 3.486 0 010-5.418c.491-.491.708-.731.708-1.3s-.217-.8-.707-1.291a3.479 3.479 0 010-5.413c.49-.49.707-.73.707-1.291s-.217-.8-.707-1.291A3.563 3.563 0 0148 22.007h2c0 .561.217.8.707 1.29a3.478 3.478 0 010 5.412c-.49.49-.707.73-.707 1.291s.217.8.707 1.292a3.482 3.482 0 010 5.415C50.217 37.2 50 37.439 50 38s.217.8.708 1.3A3.57 3.57 0 0152 42.007z" class="color32b1cc svgShape"></path></svg></g></svg>