<svg id="SvgjsSvg1001" width="256" height="256" xmlns="http://www.w3.org/2000/svg" version="1.1" xmlns:xlink="http://www.w3.org/1999/xlink" xmlns:svgjs="http://svgjs.com/svgjs"><defs id="SvgjsDefs1002"></defs><g id="SvgjsG1008"><svg xmlns="http://www.w3.org/2000/svg" data-name="Layer 1" viewBox="0 0 128 128" width="256" height="256"><path fill="#e1ebf4" d="M106.54108,74.88531c-.06836.22174-.13458.444-.21881.66254A10.01078,10.01078,0,0,1,93.4209,81.30566l-.63116-.24158a6.36144,6.36144,0,0,0-.03973.64423c0,4.2572,4.216,7.70831,9.41669,7.70831s9.41663-3.45111,9.41663-7.70831C111.58331,78.74457,109.53735,76.17529,106.54108,74.88531Z" class="colore1ebf4 svgShape"></path><path fill="#ffdb80" d="M100.17,69.83,98,75,77.5,66.83l-6.33,3.84,1.5,11-3.84,5L40,86.17a9.12416,9.12416,0,0,1-1.83-5.5C38,77,40.33,76.33,40.33,76.33h18l-5.5-16.16,28-14.84s1.38.84,3.18,2.06006c.01.18.02.37.03.55.02.24.05.48.08.73v.01a12.30708,12.30708,0,0,0,.27,1.45,11.36545,11.36545,0,0,0,.42,1.37,13.06671,13.06671,0,0,0,5.82,6.78,48.35266,48.35266,0,0,1-3.96,4.55Z" class="colorffdb80 svgShape"></path><path fill="#fc785e" d="M73.5542 72.50293a4.01252 4.01252 0 01-.69678-1.08838l-.00635-.01465a4.33188 4.33188 0 01-1.65405-.511l1.46967 10.77771-3.57782 4.66669H91.41669V80.53845l-14.007-5.36316A10.07692 10.07692 0 0173.5542 72.50293zM55.12 73.5H44.8l-2.21-2.94a1.99477 1.99477 0 00-3.1-.12L27.31 84.36a4.10383 4.10383 0 01-3.1 1.4A4.10115 4.10115 0 0121.09 79L38.12 59.04a4.01406 4.01406 0 015.07-.85l8.51 7.68a4.80808 4.80808 0 00.2.53z" class="colorfc785e svgShape"></path><rect width="4" height="51.99" x="120" y="65.01" fill="#d68751" class="colord68751 svgShape"></rect><rect width="104" height="8" x="12" y="90" fill="#d68751" class="colord68751 svgShape"></rect><rect width="4" height="39" x="4" y="78" fill="#d68751" class="colord68751 svgShape"></rect><path fill="#2d4356" d="M79.38,17.48a8.78851,8.78851,0,0,0-10.46-1.3,8.74205,8.74205,0,0,0-10.45,1.41A8.43043,8.43043,0,0,0,56,23.65a8.52777,8.52777,0,0,0,2.62,6.09l8.8,8.55a2.53308,2.53308,0,0,0,1.76.72h.01A2.49773,2.49773,0,0,0,70.96,38.27L79.53,29.64a8.53675,8.53675,0,0,0-.15-12.16ZM76.7,26.82l-7.54,7.59L61.4,26.87A4.5571,4.5571,0,0,1,60,23.61a4.44051,4.44051,0,0,1,1.3-3.2,4.66387,4.66387,0,0,1,3.3-1.36,4.72928,4.72928,0,0,1,3.05,1.1,1.99884,1.99884,0,0,0,2.59-.02,4.74074,4.74074,0,0,1,6.36.22A4.592,4.592,0,0,1,78,23.61,4.48017,4.48017,0,0,1,76.7,26.82Z" class="color2d4356 svgShape"></path><path fill="#fc785e" d="M78,23.61a4.48017,4.48017,0,0,1-1.3,3.21l-7.54,7.59L61.4,26.87A4.5571,4.5571,0,0,1,60,23.61a4.44051,4.44051,0,0,1,1.3-3.2,4.66387,4.66387,0,0,1,3.3-1.36,4.72928,4.72928,0,0,1,3.05,1.1,1.99884,1.99884,0,0,0,2.59-.02,4.74074,4.74074,0,0,1,6.36.22A4.592,4.592,0,0,1,78,23.61Z" class="colorfc785e svgShape"></path><path fill="#2d4356" d="M102.07,8.68a6.45814,6.45814,0,0,0-7.13-1.05,6.42335,6.42335,0,0,0-7.12,1.12A5.75653,5.75653,0,0,0,86,13a5.85532,5.85532,0,0,0,1.93,4.27l5.6,5.13H93.54a2.34158,2.34158,0,0,0,1.57.61h.02a2.30769,2.30769,0,0,0,1.59-.64l5.46-5.18A5.75653,5.75653,0,0,0,104,12.94,5.81715,5.81715,0,0,0,102.07,8.68Zm-2.65,5.61L95.09,18.4l-4.46-4.08A1.85374,1.85374,0,0,1,90,12.96a1.801,1.801,0,0,1,.58-1.31,2.33474,2.33474,0,0,1,1.62-.61,2.42435,2.42435,0,0,1,1.52.51,2.0001,2.0001,0,0,0,2.5-.02,2.4751,2.4751,0,0,1,3.15.1,1.84924,1.84924,0,0,1,.63,1.35A1.78448,1.78448,0,0,1,99.42,14.29Z" class="color2d4356 svgShape"></path><path fill="#fc785e" d="M100,12.98a1.78448,1.78448,0,0,1-.58,1.31L95.09,18.4l-4.46-4.08A1.85374,1.85374,0,0,1,90,12.96a1.801,1.801,0,0,1,.58-1.31,2.33474,2.33474,0,0,1,1.62-.61,2.42435,2.42435,0,0,1,1.52.51,2.0001,2.0001,0,0,0,2.5-.02,2.4751,2.4751,0,0,1,3.15.1A1.84924,1.84924,0,0,1,100,12.98Z" class="colorfc785e svgShape"></path><path fill="#2d4356" d="M111.44,41.9a9.17607,9.17607,0,0,0-11.68-5.35l-5.74,2.04a9.03867,9.03867,0,0,0-5.19,4.7,8.77844,8.77844,0,0,0-.27,6.82A9.14235,9.14235,0,0,0,97.14,56a9.31321,9.31321,0,0,0,3.1-.53l5.74-2.05a8.98953,8.98953,0,0,0,5.19-4.69A8.80315,8.80315,0,0,0,111.44,41.9Zm-3.9,5.13a5.04724,5.04724,0,0,1-2.9,2.63L98.9,51.7a5.17317,5.17317,0,0,1-6.59-2.98,4.76624,4.76624,0,0,1,.15-3.74,4.99886,4.99886,0,0,1,2.9-2.62l5.74-2.05a5.16959,5.16959,0,0,1,6.59,2.99A4.74183,4.74183,0,0,1,107.54,47.03Z" class="color2d4356 svgShape"></path><path fill="#e1ebf4" d="M107.54,47.03a5.04724,5.04724,0,0,1-2.9,2.63L98.9,51.7a5.17317,5.17317,0,0,1-6.59-2.98,4.76624,4.76624,0,0,1,.15-3.74,4.99886,4.99886,0,0,1,2.9-2.62l5.74-2.05a5.16959,5.16959,0,0,1,6.59,2.99A4.74183,4.74183,0,0,1,107.54,47.03Z" class="colore1ebf4 svgShape"></path><path fill="#f9edd2" d="M84.39,50.13a5.239,5.239,0,0,0-4.04.1.31424.31424,0,0,0-.1.05L57.23,61.8a3.98386,3.98386,0,0,0-1.85,2.44,3.99,3.99,0,0,1,1.85-4.44L80.25,48.28a.31424.31424,0,0,1,.1-.05,4.54923,4.54923,0,0,1,3.69-.29c.02.24.05.48.08.73v.01A12.30708,12.30708,0,0,0,84.39,50.13Z" opacity=".5" class="colorf9edd2 svgShape"></path><path fill="#ad9359" d="M98.86,72.68a2.03773,2.03773,0,0,1-2.58,1.15L80.27,67.7a1.99848,1.99848,0,0,1-1.25-2.22l.15-.83a1.9583,1.9583,0,0,0,1.1,1.05l16.01,6.13A2.04752,2.04752,0,0,0,98.72,70.97,2.0018,2.0018,0,0,1,98.86,72.68Z" opacity=".45" class="colorad9359 svgShape"></path><path fill="#f9dbd7" d="M55.12,73.5h-.91L51.9,68.4a4.81372,4.81372,0,0,1-.2-.53l-8.51-7.68a4.01413,4.01413,0,0,0-5.07.85L21.09,81a4.21271,4.21271,0,0,0-.86,1.63A3.97268,3.97268,0,0,1,21.09,79L38.12,59.04a4.01413,4.01413,0,0,1,5.07-.85l8.51,7.68a4.81372,4.81372,0,0,0,.2.53Z" opacity=".3" class="colorf9dbd7 svgShape"></path><path fill="#ad9359" d="M69.88,84.52a4.2488,4.2488,0,0,1-2.85.98H43.25A4.16105,4.16105,0,0,1,39,81.63a3.64084,3.64084,0,0,1,.14-1.14,4.21636,4.21636,0,0,0,4.11,3.01H67.03a4.2488,4.2488,0,0,0,2.85-.98,4.02026,4.02026,0,0,0,1.24-2.02A4.01085,4.01085,0,0,1,69.88,84.52Z" opacity=".45" class="colorad9359 svgShape"></path><path fill="#a54b3f" d="M89.95966,80.0611A3.98626,3.98626,0,0,1,85.99,83.76H74.91a8.34668,8.34668,0,0,1-.9,2H85.99a3.99891,3.99891,0,0,0,4-4V80.0791Z" opacity=".5" class="colora54b3f svgShape"></path><path fill="#9fa5aa" d="M109.88,80.77A4.97869,4.97869,0,0,1,107.6,84H96.38a5.01146,5.01146,0,0,1-2.15582-2.76172,1.84266,1.84266,0,0,1-.36591.20782c.04388.01331.08783.03.13171.04388a.03677.03677,0,0,0,.03.01,2.29834,2.29834,0,0,0-.03.26A4.96929,4.96929,0,0,0,96.38,86H107.6a4.96916,4.96916,0,0,0,2.39-4.24A4.0612,4.0612,0,0,0,109.88,80.77Z" opacity=".5" class="color9fa5aa svgShape"></path><rect width="4" height="2" x="120" y="65.01" fill="#e5d0c3" opacity=".3" class="colore5d0c3 svgShape"></rect><rect width="4" height="2" x="120" y="115" fill="#72492d" opacity=".4" class="color72492d svgShape"></rect><rect width="104" height="2" x="12" y="96" fill="#72492d" opacity=".4" class="color72492d svgShape"></rect><rect width="4" height="2" x="4" y="78" fill="#e5d0c3" opacity=".3" class="colore5d0c3 svgShape"></rect><rect width="4" height="2" x="4" y="115" fill="#72492d" opacity=".4" class="color72492d svgShape"></rect><path fill="#9fa5aa" d="M107.54,47.03a5.04734,5.04734,0,0,1-2.9,2.62994L98.9,51.7a5.17312,5.17312,0,0,1-6.59-2.98,4.78294,4.78294,0,0,1-.2-2.72,3.87267,3.87267,0,0,0,.2.72A5.17312,5.17312,0,0,0,98.9,49.7l5.74-2.04a5.04734,5.04734,0,0,0,2.9-2.62994,4.73341,4.73341,0,0,0,.35-1.02A4.71541,4.71541,0,0,1,107.54,47.03Z" opacity=".5" class="color9fa5aa svgShape"></path><path fill="#ffffff" d="M107.89,46.01a3.579,3.579,0,0,0-.2-.71,5.16959,5.16959,0,0,0-6.59-2.99l-5.74,2.05a4.99886,4.99886,0,0,0-2.9,2.62A4.92531,4.92531,0,0,0,92.11,48a4.70788,4.70788,0,0,1,.35-3.02,4.99886,4.99886,0,0,1,2.9-2.62l5.74-2.05a5.16959,5.16959,0,0,1,6.59,2.99A4.74286,4.74286,0,0,1,107.89,46.01Z" opacity=".5" class="colorfff svgShape"></path><path fill="#2d4356" d="M126,61.01h-8a1.99943,1.99943,0,0,0-2,2V86h-3.08a8.89148,8.89148,0,0,0,1.07-4.24,9.00626,9.00626,0,0,0-7.06-8.78,10.12559,10.12559,0,0,1-.6,2.56,9.52508,9.52508,0,0,1-.61,1.29A4.97118,4.97118,0,0,1,107.6,86H96.38a4.96929,4.96929,0,0,1-2.39-4.24,2.29673,2.29673,0,0,1,.03-.26.03677.03677,0,0,1-.03-.01c-.19-.06-.38-.11-.57-.19l-3.43-1.31v1.77a3.99891,3.99891,0,0,1-4,4H74.01A8.02807,8.02807,0,0,0,75.22,82H82.7a2,2,0,1,0,0-4H74.49l-2.17-6.14,4.21-2.03a6.02478,6.02478,0,0,0,2.31,1.61L94.85,77.57a6.00145,6.00145,0,0,0,4.29-11.21l-8.87-3.39a7.9554,7.9554,0,0,0,2.56-3.7,13.19916,13.19916,0,0,1-3.65-1.94,3.39093,3.39093,0,0,1-.07.46,3.9909,3.9909,0,0,1-1.83,2.4l-2.94,1.42.03.04a2.00278,2.00278,0,0,0,.43,3.51L97.71,70.1a1.99962,1.99962,0,0,1,1.15,2.58,2.03765,2.03765,0,0,1-2.58,1.15L80.27,67.7a1.99848,1.99848,0,0,1-1.25-2.22l2-11.04a1.99681,1.99681,0,0,0-3.93-.71l-2,11.04a5.10325,5.10325,0,0,0-.07,1.35l-6.05,2.92a1.98987,1.98987,0,0,0-1.02,2.46l2.95,8.35a.4828.4828,0,0,0,.04.11,4.01366,4.01366,0,0,1-1.06,4.56,4.24853,4.24853,0,0,1-2.85.98H43.25A4.1611,4.1611,0,0,1,39,81.63a4.01341,4.01341,0,0,1,4-4.13H58.23a1.99281,1.99281,0,0,0,1.82-2.82L55.56,64.8a4.00674,4.00674,0,0,1,1.67-5L80.25,48.28a.31424.31424,0,0,1,.1-.05,4.00759,4.00759,0,0,1,3.7-.13,12.708,12.708,0,0,1,.32-4.12,7.98809,7.98809,0,0,0-5.95.74L55.39,56.25a.93527.93527,0,0,1-.1.05,7.99349,7.99349,0,0,0-3.55,4.22l-6-5.42a1.63657,1.63657,0,0,0-.26-.2,8.04029,8.04029,0,0,0-10.4,1.54L18.05,76.4a8.01147,8.01147,0,0,0-1.19,8.65,7.21062,7.21062,0,0,0,.52.95H12V76a2.00583,2.00583,0,0,0-2-2H2a2.00587,2.00587,0,0,0-2,2v43a2.00591,2.00591,0,0,0,2,2h8a2.00587,2.00587,0,0,0,2-2V102H116v17a2.00591,2.00591,0,0,0,2,2h8a2.00591,2.00591,0,0,0,2-2V63.01A1.99943,1.99943,0,0,0,126,61.01ZM8,117H4V78H8ZM21.09,79,38.12,59.04a4.01406,4.01406,0,0,1,5.07-.85l8.51,7.68a4.80808,4.80808,0,0,0,.2.53l3.22,7.1H44.8l-2.21-2.94a1.99477,1.99477,0,0,0-3.1-.12L27.31,84.36a4.10383,4.10383,0,0,1-3.1,1.4A4.10115,4.10115,0,0,1,21.09,79Zm15.37,7H31.19l3.82-4.36c0,.04-.01.06995-.01.11A7.73582,7.73582,0,0,0,36.46,86ZM116,98H12V90H116Zm8,19h-4V65.01h4Z" class="color2d4356 svgShape"></path><path fill="#f9dbd7" d="M78 23.61a4.54053 4.54053 0 01-.11 1.04 4.6506 4.6506 0 00-1.29-2.3 4.74081 4.74081 0 00-6.36-.22 1.99877 1.99877 0 01-2.59.02 4.729 4.729 0 00-3.05-1.1 4.66387 4.66387 0 00-3.3 1.36 4.40887 4.40887 0 00-1.19 2.16 4.34614 4.34614 0 01-.11-.96 4.44062 4.44062 0 011.3-3.2 4.66387 4.66387 0 013.3-1.36 4.729 4.729 0 013.05 1.1 1.99877 1.99877 0 002.59-.02 4.74081 4.74081 0 016.36.22A4.592 4.592 0 0178 23.61zM100 12.98a1.75453 1.75453 0 01-.32 1.01 2.10691 2.10691 0 00-.31-.36 2.475 2.475 0 00-3.15-.1 2.00018 2.00018 0 01-2.5.02 2.42435 2.42435 0 00-1.52-.51 2.33451 2.33451 0 00-1.62.61 1.85572 1.85572 0 00-.26.31 1.72423 1.72423 0 01-.32-1 1.8008 1.8008 0 01.58-1.31 2.33451 2.33451 0 011.62-.61 2.42435 2.42435 0 011.52.51 2.00018 2.00018 0 002.5-.02 2.475 2.475 0 013.15.1A1.84924 1.84924 0 01100 12.98z" opacity=".3" class="colorf9dbd7 svgShape"></path></svg></g></svg>