<svg id="SvgjsSvg1001" width="256" height="256" xmlns="http://www.w3.org/2000/svg" version="1.1" xmlns:xlink="http://www.w3.org/1999/xlink" xmlns:svgjs="http://svgjs.com/svgjs"><defs id="SvgjsDefs1002"></defs><g id="SvgjsG1008"><svg xmlns="http://www.w3.org/2000/svg" viewBox="0 0 24 24" width="256" height="256"><g data-name="shield check" fill="#000000" class="color000 svgShape"><path fill="#55abff" d="M21.24,6a23.88,23.88,0,0,1-8.69-3.86,1,1,0,0,0-1.1,0A23.88,23.88,0,0,1,2.76,6,1,1,0,0,0,2,7.16c1.1,6.55,4.37,11.63,9.48,14.7a1,1,0,0,0,1,0c5.11-3.07,8.38-8.15,9.48-14.7A1,1,0,0,0,21.24,6Z" class="color55abff svgShape"></path><path fill="#dadde2" d="M9.93,11.51a1,1,0,0,0-1.42,0,1,1,0,0,0,0,1.41l1.79,1.79A1,1,0,0,0,11,15a1,1,0,0,0,.7-.29l4.12-4.13a1,1,0,0,0-1.41-1.41L11,12.58Z" class="colordadde2 svgShape"></path></g></svg></g></svg>