<svg id="SvgjsSvg1022" width="256" height="256" xmlns="http://www.w3.org/2000/svg" version="1.1" xmlns:xlink="http://www.w3.org/1999/xlink" xmlns:svgjs="http://svgjs.com/svgjs"><defs id="SvgjsDefs1023"></defs><g id="SvgjsG1024"><svg xmlns="http://www.w3.org/2000/svg" fill="none" viewBox="0 0 64 64" width="256" height="256"><g clip-path="url(#a)" fill="#000000" class="color000 svgShape"><path fill="#4db1ea" d="M22.2841 13.4847C28.0197 9.10104 35.9803 9.10104 41.7159 13.4847L55.5458 24.0549C60.7825 28.0573 60.7825 35.9427 55.5458 39.9451L41.7159 50.5153C35.9803 54.899 28.0197 54.899 22.2841 50.5153L8.45422 39.9451C3.21749 35.9427 3.2175 28.0573 8.45423 24.0549L22.2841 13.4847Z" class="color4DB1EA svgShape"></path><path fill="#1b78ac" fill-rule="evenodd" d="M42.9304 11.8957L56.7603 22.4658C63.0443 27.2687 63.0443 36.7313 56.7603 41.5342L42.9304 52.1043C36.4779 57.036 27.5221 57.036 21.0696 52.1043L7.23973 41.5342C0.955657 36.7313 0.955663 27.2687 7.23973 22.4658L21.0696 11.8957C27.5221 6.96405 36.4779 6.96405 42.9304 11.8957ZM41.7159 13.4847C35.9803 9.10104 28.0197 9.10104 22.2841 13.4847L8.45423 24.0549C3.2175 28.0573 3.21749 35.9427 8.45422 39.9451L22.2841 50.5153C28.0197 54.899 35.9803 54.899 41.7159 50.5153L55.5458 39.9451C60.7825 35.9427 60.7825 28.0573 55.5458 24.0549L41.7159 13.4847Z" clip-rule="evenodd" class="color1B78AC svgShape"></path><path fill="#3c9ace" fill-rule="evenodd" d="M5.3335 35.9508C5.98237 37.4667 7.02258 38.851 8.45414 39.9451L22.284 50.5153C28.0196 54.899 35.9803 54.899 41.7158 50.5153L55.5457 39.9451C60.3776 36.2521 60.7511 29.2533 56.6663 25.0492C58.3911 29.0784 57.3509 34.0369 53.5457 36.9451L39.7158 47.5153C33.9803 51.899 26.0196 51.899 20.284 47.5153L6.45414 36.9451C6.0493 36.6357 5.67575 36.3031 5.3335 35.9508Z" clip-rule="evenodd" class="color3C9ACE svgShape"></path><path fill="#75cbfb" fill-rule="evenodd" d="M26.698 15.0147C27.3802 15.8834 27.2291 17.1407 26.3604 17.8229L13.5479 27.8854C12.6792 28.5676 11.4219 28.4165 10.7397 27.5478C10.0574 26.6791 10.2086 25.4218 11.0773 24.7396L23.8898 14.6771C24.7585 13.9949 26.0157 14.146 26.698 15.0147Z" clip-rule="evenodd" class="color75CBFB svgShape"></path><path fill="#eef7fc" fill-rule="evenodd" d="M26.698 15.0147C27.3802 15.8834 27.2291 17.1407 26.3604 17.8229L23.1573 20.3385C22.2886 21.0208 21.0313 20.8696 20.3491 20.0009C19.6668 19.1322 19.818 17.875 20.6867 17.1927L23.8898 14.6771C24.7585 13.9949 26.0157 14.146 26.698 15.0147Z" clip-rule="evenodd" class="colorEEF7FC svgShape"></path><path fill="#2885b9" fill-rule="evenodd" d="M31.5 15C32.6046 15 33.5 15.8954 33.5 17V47.5C33.5 48.6046 32.6046 49.5 31.5 49.5C30.3954 49.5 29.5 48.6046 29.5 47.5V17C29.5 15.8954 30.3954 15 31.5 15Z" clip-rule="evenodd" class="color2885B9 svgShape"></path><path fill="#76ceff" fill-rule="evenodd" d="M31 49.437C31.1598 49.4781 31.3274 49.5 31.5 49.5C32.6046 49.5 33.5 48.6046 33.5 47.5V17C33.5 15.8954 32.6046 15 31.5 15C31.3274 15 31.1598 15.0219 31 15.063C31.8626 15.285 32.5 16.0681 32.5 17V47.5C32.5 48.4319 31.8626 49.215 31 49.437Z" clip-rule="evenodd" class="color76CEFF svgShape"></path><path fill="#268cc5" d="M42.375 45.75C42.375 46.7855 41.5355 47.625 40.5 47.625 39.4645 47.625 38.625 46.7855 38.625 45.75 38.625 44.7145 39.4645 43.875 40.5 43.875 41.5355 43.875 42.375 44.7145 42.375 45.75zM47.1875 42.3125C47.1875 43.0029 46.6279 43.5625 45.9375 43.5625 45.2471 43.5625 44.6875 43.0029 44.6875 42.3125 44.6875 41.6221 45.2471 41.0625 45.9375 41.0625 46.6279 41.0625 47.1875 41.6221 47.1875 42.3125zM43 41.0625C43 41.7529 42.4404 42.3125 41.75 42.3125 41.0596 42.3125 40.5 41.7529 40.5 41.0625 40.5 40.3721 41.0596 39.8125 41.75 39.8125 42.4404 39.8125 43 40.3721 43 41.0625zM51.9375 39.4261C51.9375 40.1165 51.3779 40.6761 50.6875 40.6761 49.9971 40.6761 49.4375 40.1165 49.4375 39.4261 49.4375 38.7357 49.9971 38.1761 50.6875 38.1761 51.3779 38.1761 51.9375 38.7357 51.9375 39.4261zM56.5 36.0511C56.5 36.7415 55.9404 37.3011 55.25 37.3011 54.5596 37.3011 54 36.7415 54 36.0511 54 35.3607 54.5596 34.8011 55.25 34.8011 55.9404 34.8011 56.5 35.3607 56.5 36.0511zM37.375 50.3636C37.375 51.054 36.8154 51.6136 36.125 51.6136 35.4346 51.6136 34.875 51.054 34.875 50.3636 34.875 49.6732 35.4346 49.1136 36.125 49.1136 36.8154 49.1136 37.375 49.6732 37.375 50.3636zM37.375 46.0625C37.375 46.6148 36.9273 47.0625 36.375 47.0625 35.8227 47.0625 35.375 46.6148 35.375 46.0625 35.375 45.5102 35.8227 45.0625 36.375 45.0625 36.9273 45.0625 37.375 45.5102 37.375 46.0625zM48.1875 38.3011C48.1875 38.8534 47.7398 39.3011 47.1875 39.3011 46.6352 39.3011 46.1875 38.8534 46.1875 38.3011 46.1875 37.7488 46.6352 37.3011 47.1875 37.3011 47.7398 37.3011 48.1875 37.7488 48.1875 38.3011z" class="color268CC5 svgShape"></path></g><defs><clipPath id="a"><rect width="64" height="64" fill="#ffffff" class="colorfff svgShape"></rect></clipPath></defs></svg></g></svg>