<svg id="SvgjsSvg1001" width="550" height="550" xmlns="http://www.w3.org/2000/svg" version="1.1" xmlns:xlink="http://www.w3.org/1999/xlink" xmlns:svgjs="http://svgjs.com/svgjs"><defs id="SvgjsDefs1002"></defs><g id="SvgjsG1008"><svg xmlns="http://www.w3.org/2000/svg" viewBox="0 0 2848 2000" width="550" height="400"><g data-name="Layer 1" fill="#000000" class="color000 svgShape"><ellipse cx="1365.11" cy="1731.09" fill="#d1d1e5" rx="1252" ry="56" class="colord1d1e5 svgShape"></ellipse><path fill="#242638" d="M2145.24 293.08q6.8-10.44 13-13.38t19.69-4.09a46.94 46.94 0 0 0 14.5-3.93 24.48 24.48 0 0 0 10.39-9.2q4.41-6.9 3.27-13.13t-7.89-10.54a16.61 16.61 0 0 0-11.52-2.72q-6 .82-10.12 7.15l-21.29-13.63.13-.54q9-14.53 23.6-16t30.19 8.56q16.79 10.74 20.91 25.37t-5.25 29.24a36 36 0 0 1-16.86 14 59 59 0 0 1-22.66 4.62c-4.56.41-8.07 1.48-10.54 3.25s-5 4.72-7.68 8.87Zm2.1 45.09-22-14.1 12-18.74 22 14.1ZM2166 397q6.2-6.57 11-7.85c3.17-.86 8-1 14.55-.36a34 34 0 0 0 10.85-.92 17.64 17.64 0 0 0 8.59-5.21q4-4.33 4-8.92t-4.25-8.54a12.05 12.05 0 0 0-7.86-3.43c-2.91-.13-5.62 1.14-8.14 3.78L2181.29 353l.17-.37q8.29-9.19 18.88-8.32t20.4 10q10.58 9.84 11.6 20.79t-7.53 20.15a26.13 26.13 0 0 1-13.84 7.82 43 43 0 0 1-16.74.35 15.31 15.31 0 0 0-7.93.95 23.23 23.23 0 0 0-6.62 5.32Zm-4.36 32.4-13.87-12.91 11-11.8 13.87 12.91Z" class="color242638 svgShape"></path><path fill="#563136" d="M560.7 1385.54h32.67v348H560.7zM320.03 1385.54h32.67v348h-32.67z" class="color563136 svgShape"></path><path fill="#3f2429" d="M239.37 1385.54h32.67v348h-32.67z" class="color3f2429 svgShape"></path><path fill="#563136" d="M239.37 1276.21h354.67v292H239.37z" class="color563136 svgShape"></path><path fill="#563136" style="mix-blend-mode:multiply" d="M239.37 1276.21h101.67v292H239.37z" opacity=".48" class="color563136 svgShape"></path><path fill="#945661" d="M218.03 1248.88h394v48h-394z" class="color945661 svgShape"></path><path fill="#945661" d="M217.03 1248.88h139v48h-139z" opacity=".25" style="mix-blend-mode:multiply" class="color945661 svgShape"></path><path fill="#563136" style="mix-blend-mode:multiply" d="M366.99 1324.23h204v90.67h-204zM366.99 1432.23h204v90.67h-204z" opacity=".48" class="color563136 svgShape"></path><path fill="#d1d1e5" d="M452.82 1331.4h61.5v9.5h-61.5zM452.82 1441.4h61.5v9.5h-61.5zM519.46 1155.19c0-16.26-7.23-31.39-19.63-44-30.54-31.07-48.37-72.41-48.37-116h-102c0 43.57-17.84 84.91-48.38 116-12.4 12.63-19.62 27.76-19.62 44 0 26.73 19.5 50.39 49.46 64.92a32.43 32.43 0 0 1 18.54 29.08h102a32.42 32.42 0 0 1 18.54-29.08c30-14.53 49.46-38.19 49.46-64.92Z" class="colord1d1e5 svgShape"></path><ellipse style="mix-blend-mode:multiply" cx="498.67" cy="1156.53" fill="#e9e9f4" rx="15.91" ry="32.67" class="colore9e9f4 svgShape"></ellipse><ellipse style="mix-blend-mode:multiply" cx="305.23" cy="1156.53" fill="#e9e9f4" rx="15.91" ry="32.67" class="colore9e9f4 svgShape"></ellipse><ellipse style="mix-blend-mode:multiply" cx="456.49" cy="1156.53" fill="#e9e9f4" rx="22.3" ry="32.67" class="colore9e9f4 svgShape"></ellipse><ellipse style="mix-blend-mode:multiply" cx="345.57" cy="1156.53" fill="#e9e9f4" rx="22.3" ry="32.67" class="colore9e9f4 svgShape"></ellipse><ellipse style="mix-blend-mode:multiply" cx="399.96" cy="1156.53" fill="#e9e9f4" rx="29.68" ry="32.67" class="colore9e9f4 svgShape"></ellipse><path fill="#242638" d="M452.13 1085.92v-4h-5.75v5.94c0 5.63-1.82 11-4.17 16.09a7.75 7.75 0 1 0 14.8 3.22 7.67 7.67 0 0 0-1-3.84c-3.01-5.23-3.88-11.4-3.88-17.41Z" class="color242638 svgShape"></path><circle cx="449.13" cy="1079.52" r="2.62" fill="#242638" class="color242638 svgShape"></circle><circle cx="449.13" cy="1074.46" r="2.62" fill="#242638" class="color242638 svgShape"></circle><circle cx="449.13" cy="1069.46" r="2.62" fill="#242638" class="color242638 svgShape"></circle><circle cx="449.13" cy="1064.63" r="2.62" fill="#242638" class="color242638 svgShape"></circle><circle cx="449.13" cy="1060.21" r="2.62" fill="#242638" class="color242638 svgShape"></circle><circle cx="449.13" cy="1055.46" r="2.62" fill="#242638" class="color242638 svgShape"></circle><circle cx="449.13" cy="1050.96" r="2.62" fill="#242638" class="color242638 svgShape"></circle><path fill="#242638" d="M1998.19 427.94c3 13.61 9.88 26 13.9 39.39s4.71 29-3.71 40.09c12.36-11.44 12.37-31.17 7.47-47.28s-13.74-31.07-16.28-47.71a119.37 119.37 0 0 1 25.43 45.86 59.57 59.57 0 0 0-15.41-46.19c9.82 1.9 19.61-3.94 26.45-11.24 13.33-14.23 19.25-34.62 17.38-54s-11.09-37.74-24.25-52.14c7.59-1.15 13.74 6 17.58 12.61a126.6 126.6 0 0 1 14.65 39.48 87.71 87.71 0 0 0-7.52-41.55c-4.26-9.46-12.06-19.17-22.43-18.87a30.65 30.65 0 0 1 31.59 11.49c-4-12.2-18.28-20-30.74-16.83 5.72-1.88 9.2-8.07 9.47-14.09s-2.13-11.83-5.06-17.09a46.09 46.09 0 0 0-10.85-13.62c-10.81-8.72-27.5-9.16-38.75-1s-16.06 24.12-11.17 37.11a37.05 37.05 0 0 0-23.6-23.37 70.84 70.84 0 0 1 17.56 26.33c-11.4-4.5-24.48-1.73-35.62 3.4a89.88 89.88 0 0 0-49.79 102.6c2.07 8.62 5.42 17 6 25.87 1.41 21.87-17.27 43-39.14 44.34 11.89 4.25 23.29 0 31.82-9.29s12.2-22.3 12.39-34.93c5.48 14 11 28.57 10.22 43.6-1.15 21-14.58 42.07-7 61.65-2.25-26 17.14-50.79 12.84-76.53.46 20.94 13.51 41.11 32.42 50.11a230.86 230.86 0 0 1 54.15-58.2Z" class="color242638 svgShape"></path><path fill="#ffa192" d="m1994.1 450.78-1.14 38a38.93 38.93 0 0 0 37.7 40.18c20.07.5 41.55 3.09 47.47 11.39 11.9 16.64 12.69 34.88 13.48 50.73s23.78 111 23.78 111 72.15-83.24 94.34-96.72l19 20.62s-93.55 165.68-114.16 168.85-30.92-3.17-32.5-10.3-30.89-93.53-30.89-93.53-35.67 99.1-32.5 115 42 63.42 48.36 78.49 34.09 73.72 34.88 145.87-20.61 264.78-19 274.29 34.88 66.6 33.3 125.26-27 149-31.71 176 3.56 79.27 3.56 79.27l-89.18-13.48s40.43-30.12 38.84-66.59-11.89-225.94-30.91-311.55-57.08-231.49-57.08-283.82c0 0-20.62 1.19-31.32 1.19 0 0 11.89 30.92-3.57 108.22s-28.53 170-28.53 180.75 17.85 86 16.64 115.74c-4 97.51-51.43 202.35-49 219s3.27 34.79 3.27 34.79l-66.29-8.63s23.18-22.59 23.18-41.62-5-307.39-7.43-324-19-107-20.21-212.86 25-179.56 25-179.56l44-117.72 4.75-51.14-17.83-44s-42.81 73.73-55.89 83.24-38.06 3.57-44 0-41.62-65.4-72.54-183.13l23.78-13.08s65.41 101.08 72.54 122.49c0 0 23.78-57.08 34.49-88s11.89-66.59 34.48-72.54c12.73-3.35 39.81-6.7 61-9a36.74 36.74 0 0 0 32.58-32.57l3.9-35.73Z" class="colorffa192 svgShape"></path><path fill="#c93d57" d="M2066.89 884.43c-2.11-5-7.84-13.65-14.64-23.49-32.48 11.69-134.91 41.4-221.29-11.09l-19.74 52.81s-3.48 9.83-7.84 27.4c24.76 17.38 91.66 64.39 115.13 81.61-.17-.53-.27-.8-.27-.8 10.71 0 31.32-1.19 31.32-1.19s92.62-72.78 131.37-90.27c-6.01-16.94-11.61-29.2-14.04-34.98Z" class="colorc93d57 svgShape"></path><path fill="#e88a80" d="m1993.44 472.75.66-22-61.44 10.71-3.14 28.77c10.85 2.41 41.63 6.43 63.92-17.48Z" class="colore88a80 svgShape"></path><path fill="#0284c7" d="M1882.32 527.68s48.36 41.23 121.29 52.32 92.76 5.55 92.76 5.55 9.51 7.14 7.93 13.48-2.38.79-1.59 6.34 22.2 61 22.2 61-23 54.7-66.59 68.17l-7.93-24.54-22.2 78.48s6.34 3.17 6.34 10.31v7.13s7.14 3.17 7.14 9.52 15.06 39.63 15.06 39.63-23.78 71.35-78.48 62.63-125.25-88.77-141.12-90.35 7.14-25.37 7.14-25.37 9.51-60.25 6.34-65.8-31.71-19.82-30.12-54.7.79-46.77.79-46.77-46.77-23.79-58.67-48.36c0 0 31.71-14.27 46.78-32.51s26.95-27.74 72.93-26.16Z" class="colore9e9f4 svgShape"></path><path fill="#e7867e" d="M1895 388.65s-11.2-7.64-16.39-1.13c-5.51 6.89-2.18 28 18.32 28.42-.04 0 2.96-11.46-1.93-27.29Z" class="colore7867e svgShape"></path><path fill="none" stroke="#c45353" stroke-linecap="round" stroke-linejoin="round" d="M1880 393.79s.64-6.09 7-4.91c3.73.7 5 14 5 14s-3.66-.12-4.3 2.69a5.57 5.57 0 0 0 .86 4.6s-6.17-2-8.45-7.11" class="colorStrokec45353 svgStroke"></path><ellipse cx="1918.06" cy="395.93" fill="#242638" rx="11.59" ry="4.55" transform="rotate(-88.3 1918.034 395.947)" class="color242638 svgShape"></ellipse><ellipse cx="1974.63" cy="397.22" fill="#242638" rx="11.59" ry="4.55" transform="rotate(-88.3 1974.604 397.24)" class="color242638 svgShape"></ellipse><path fill="#c45353" d="M1947.21 430.35a.88.88 0 0 0 .75-.37 5.07 5.07 0 0 0 .57-4.85.91.91 0 0 0-.75-.56 17.47 17.47 0 0 1-6-1.32 5.57 5.57 0 0 1-3.29-4.21c-.13-1.51.6-3 1.38-4.56l.33-.69c4.64-9.66 4-21.29 3.45-30.63a.91.91 0 0 0-1-.88.92.92 0 0 0-.86 1c.54 9.61 1.16 20.49-3.27 29.72l-.33.67c-.81 1.64-1.73 3.51-1.57 5.55a7.33 7.33 0 0 0 4.33 5.72 17.47 17.47 0 0 0 6 1.43 3.24 3.24 0 0 1-.51 2.52.94.94 0 0 0 .19 1.3.86.86 0 0 0 .58.16Z" class="colorc45353 svgShape"></path><path fill="#242638" d="M1961.78 373.62c-2.24-3.75 2.32-5.69 5.16-6.47a19.35 19.35 0 0 1 15.17 2.64 20.62 20.62 0 0 1 6.06 5.71c1.13 1.69 2 4.06 1.43 6.09-1.91-.58-3.87-3.12-5.65-4.29a19 19 0 0 0-7.42-3 24 24 0 0 0-8.19.29c-2.03.41-5.23 1.25-6.56-.97ZM1929.72 373.31c2-3.87-2.63-5.54-5.51-6.16a19.42 19.42 0 0 0-15 3.5 20.66 20.66 0 0 0-5.73 6.05c-1 1.75-1.82 4.17-1.1 6.17 1.88-.7 3.69-3.34 5.41-4.61a18.88 18.88 0 0 1 7.24-3.39 24 24 0 0 1 8.2-.18c2.04.24 5.28.92 6.49-1.38Z" class="color242638 svgShape"></path><path fill="#d16161" d="M1965.86 445.19s-5.69 13.4-20.6 13.11c-12.86-.25-14.78-11.16-14.78-11.16s6.17-13.5 9.13-13.36 7.07 3.82 7.07 3.82 3.21-3.46 6.44-3.61 11.18 10.19 12.74 11.2Z" class="colord16161 svgShape"></path><path fill="#242638" d="M2019.91 400.78S2013.3 385 1946 324.49c0 0-48 43.22-53.77 61.35 0 0-17.68-95.06 69.49-99.09s65.47 101.16 64 106.57a12.2 12.2 0 0 1-5.81 7.46Z" class="color242638 svgShape"></path><path fill="#ffa192" d="M2010.51 397.78s3.78-21.1 23.3-8.78c7.75 4.89 3.08 28.7-21.09 27.11 0 0-7.78-3.73-2.21-18.33Z" class="colorffa192 svgShape"></path><path fill="none" stroke="#ce5959" stroke-linecap="round" stroke-linejoin="round" stroke-width="1.33" d="M2034.25 396.79s-.67-9.16-13.14-8.21c-5.9.45-8.34 10.76-8.34 10.76s3.23-1.71 4.74 1.55-2.21 5.71-2.38 6.54 9.84 3 14.39-1" class="colorStrokece5959 svgStroke"></path><path fill="#242638" d="M1965.86 445.35s-25.15-13.75-35.29 1.72c0 0 3.53 3.05 13.82 3.29s21.47-5.01 21.47-5.01Z" class="color242638 svgShape"></path><path fill="#ffffff" d="M1944.27 446.7a46.86 46.86 0 0 0 17-3.44c-7.07-2.87-20.7-6.83-28.68 1.25a33.43 33.43 0 0 0 11.68 2.19Z" class="colorfff svgShape"></path><path fill="#242638" d="M1992.23 449.4c3.39-8.82 6.83-17.8 7.58-27.22 1.27-15.76-5.07-31.17-13-44.82s-17.71-26.31-24.35-40.65c-1.71-3.69-3.24-7.53-5.74-10.74s-6.23-5.75-10.3-5.7c3.89 13.92 14.3 24.9 21.88 37.21a191.31 191.31 0 0 1 9.19 17.48c5.63 11.68 11.21 23.49 14.48 36s4.09 26.04.26 38.44Z" class="color242638 svgShape"></path><path fill="none" stroke="#a6a6cc" stroke-linecap="round" stroke-linejoin="round" stroke-width="1.19" d="M2034.53 805.94s-103.06 11.89-161.72-56.28c0 0-10.31-10.31 23 4s68.18 35.68 95.92 35.68M2097.16 601.81s-168.86-16.26-204.93-51.53c0 0 48.36 69.36 140.72 71.74M2050.39 710.02l-8.33-37.66" class="colorStrokea6a6cc svgStroke"></path><path fill="#a6a6cc" d="M2001.24 711.21s-53.12 17-86.81-7.93c0 0 26.95 47.96 86.81 7.93Z" class="colora6a6cc svgShape"></path><path fill="none" stroke="#a6a6cc" stroke-miterlimit="10" stroke-width="1.19" d="M1857.75 824.18c13.47 4.75 103.85 85.62 130.8 76.9a118.72 118.72 0 0 0 43.6-25.37" class="colorStrokea6a6cc svgStroke"></path><circle cx="1918.79" cy="916.93" r="12.68" fill="#e9e9f4" transform="rotate(-9.22 1918.27 916.727)" class="colore9e9f4 svgShape"></circle><circle cx="1898.57" cy="965.29" r="12.68" fill="#e9e9f4" transform="rotate(-87.14 1898.696 965.251)" class="colore9e9f4 svgShape"></circle><circle cx="1868.05" cy="889.18" r="12.68" fill="#e9e9f4" transform="rotate(-67.5 1868.05 889.183)" class="colore9e9f4 svgShape"></circle><circle cx="1978.64" cy="953" r="12.68" fill="#e9e9f4" transform="rotate(-29.52 1978.517 952.968)" class="colore9e9f4 svgShape"></circle><circle cx="2050.39" cy="907.42" r="12.68" fill="#e9e9f4" class="colore9e9f4 svgShape"></circle><path fill="#ffffff" d="M2042.35 339.55c2-1.93 1.32-5.26.41-7.91-3.06-8.92-6.86-17.71-12.58-25.21s-13.56-13.66-22.69-16q3.06 7.47 6.1 14.94c.45 1.11.87 2.47.14 3.41a3.22 3.22 0 0 1-1.93.94 21.09 21.09 0 0 1-8.45.07c-1.81-.35-3.81-.91-5.38.05-2.19 1.32-2 4.56-1.14 7s2.16 5 1.27 7.39c-.81 2.18-3.28 3.39-5.6 3.45a17.63 17.63 0 0 1-6.75-1.65l-28.86-11.23c-.74 1.61.37 3.43 1.45 4.85a351.23 351.23 0 0 0 55.38 57.89 66.42 66.42 0 0 1-7.86-28.59c0-.73.05-1.63.72-1.92a1.88 1.88 0 0 1 1.64.4l7.92 4.88q0-9.15.75-18.28c.11-1.28.33-2.74 1.41-3.43a4 4 0 0 1 2.3-.43 32.24 32.24 0 0 1 21.75 9.38Z" opacity=".25" class="colorfff svgShape"></path><path fill="#ffa192" d="M2046.6 1623.29c-13.21 23.62-68.06 68.86-85.67 72.87s-34.43 3.6-36.43 7.6 1.2 14 6.4 12.81c0 0 9.61 3.21 12.81.8 0 0 7.61 5.61 14 .41a18.66 18.66 0 0 0 13.21 2.4l6.4-1.6a7.19 7.19 0 0 0 4.81 2.8c3.2.4 10.41-1.2 10.41-1.2s18 2 33.63-.4 22-3.21 32.42-2.41 22.82 2.41 30-1.6-5.55-61.07-5.15-70.68-36.84-21.8-36.84-21.8ZM1817.49 1623.29c-13.21 23.62-68 68.86-85.67 72.87s-34.43 3.6-36.43 7.6 1.2 14 6.4 12.81c0 0 9.61 3.21 12.81.8 0 0 7.61 5.61 14 .41a18.66 18.66 0 0 0 13.21 2.4l6.4-1.6a7.19 7.19 0 0 0 4.81 2.8c3.2.4 10.41-1.2 10.41-1.2s18 2 33.63-.4 22-3.21 32.43-2.41 22.82 2.41 30-1.6-5.55-61.07-5.15-70.68-36.85-21.8-36.85-21.8ZM2181.59 630l40-40.83s54.13-18.83 57.63-14.12 8.86 48.85 8.86 48.85-27.95.89-59.63 3.1c-.47 0-29.55 24.61-29.55 24.61Z" class="colorffa192 svgShape"></path><path fill="#ffa192" d="M2216.22 595.16s10.76-14.95 31.47-31.56c7.89-6.34 20.93-27.7 24.87-22.3s-16.22 29.08-15.21 31 18.16 1.36 18.16 1.36l-23 15.25Z" class="colorffa192 svgShape"></path><path fill="#ffa192" d="M2265.77 576.53s60.14-23.23 62.91-18.58-45.72 25-45.72 25 56.09-12.16 58-7.25-56.32 21.46-56.32 21.46 55.84-1.21 56.24 3.56-55.05 10.77-55.05 10.77 44.25 7 44.5 11.26-42.17 1.13-42.17 1.13l-28.16-1.82ZM1713.76 618.21l-24.89-51.48s-45.27-35.14-50.1-31.8-24 43.46-24 43.46 26.2 9.77 55.51 22c.44.18 20.14 32.77 20.14 32.77Z" class="colorffa192 svgShape"></path><path fill="#ffa192" d="M1692.07 574.18s-5.42-17.6-19.73-40c-5.46-8.52-11-32.94-16.45-29.08s6.08 32.74 4.52 34.2-17.64-4.52-17.64-4.52l17 21.82Z" class="colorffa192 svgShape"></path><path fill="#ffa192" d="M1651.07 540.69s-49.57-41.23-53.67-37.7 35.34 38.26 35.34 38.26-49.26-29.43-52.61-25.39 46.52 38.33 46.52 38.33-52.53-19-54.44-14.59 48.72 27.79 48.72 27.79-44.15-7.52-45.76-3.55 39.6 14.55 39.6 14.55l27.22 7.29Z" class="colorffa192 svgShape"></path><path fill="#563136" d="M664.32 1028.9h602v78h-602z" class="color563136 svgShape"></path><path fill="none" stroke="#563136" stroke-linejoin="round" stroke-width="40" d="M654.32 1734.9v-780h650v252" class="colorStroke563136 svgStroke"></path><rect width="1588" height="218.67" x="646.99" y="1168.23" fill="#d1d1e5" rx="44.17" class="colord1d1e5 svgShape"></rect><path fill="#e9e9f4" style="mix-blend-mode:multiply" d="M2191 1168.23h-562.68a44 44 0 0 1 44 44v130.67a44 44 0 0 1-44 44H2191a44 44 0 0 0 44-44v-130.67a44 44 0 0 0-44-44Z" class="colore9e9f4 svgShape"></path><path fill="#563136" d="M640.32 1382.9h1588v118h-1588z" class="color563136 svgShape"></path><path fill="#e9e9f4" d="M1141.65 1128.23s-212 52-273.33 58.67-53.33 28-76 25.33-13.33-29.33-16-37.33-90.67-189.33-90.67-240-24-72-5.33-81.33 48 5.33 73.33 5.33 229.34-13.33 264-13.33 42.67-20 53.34-9.34 2.66 28 2.66 28 73.34 202.67 74.67 222.67 13.33 37.33 13.33 42.67-20-1.34-20-1.34Z" class="colore9e9f4 svgShape"></path><path fill="#d1d1e5" d="M694.32 871.9c1 7 75 95 89 152s13 148 13 148-50-81-72-141-30-159-30-159Z" class="colord1d1e5 svgShape"></path><path fill="#e9e9f4" d="M1559 1088.23s-212 52-273.34 58.67-53.33 28-76 25.33-13.33-29.33-16-37.33-90.66-189.33-90.66-240-24-72-5.34-81.33 48 5.33 73.34 5.33 229.33-13.33 264-13.33 42.66-20 53.33-9.34 2.67 28 2.67 28 73.33 202.67 74.66 222.67 13.34 37.33 13.34 42.67-20-1.34-20-1.34Z" class="colore9e9f4 svgShape"></path><path fill="#d1d1e5" d="M1111.65 831.9c1 7 75 95 89 152s13 148 13 148-50-81-72-141-30-159-30-159Z" class="colord1d1e5 svgShape"></path><path fill="#563136" d="M1630.4 1460.23h41.92v282.67h-41.92zM2185.4 1394.9h41.92v348h-41.92z" class="color563136 svgShape"></path><path fill="#f48f84" d="M981.39 566.14 994.73 656c.09 9.16 14.95 18.16 23.41 21.68 17.09 7.11 45.53 18.28 59.46 20 20.69 2.61 47 14.3 58.58 24.54s12.39 15.21 21.61 37.25 94.53 138.1 94.53 138.1l-60 54.66-84.06-93.41s15.21 84.53 19 91.56 62.16 69.15 62.16 69.15-103.63 56.16-153.42 66.47l-64.73 14.83s-79.36-121.1-82.17-126.13-92-226.31-79.52-244.72c9.63-14.27 57.75-42.24 78.88-54.07A22.86 22.86 0 0 0 900 659l-1.25-81.55Z" class="colorf48f84 svgShape"></path><path fill="#a6a6cc" d="M936.78 1049.37S1052.68 1067 1159 985l28.27 21.63s6.89-7.2 11.94-2.6l5 4.61s9.84-6.38 12.8-6.28 5 6.82 5 6.82l127.21-45-4.72 154.13-87.85 27s-232.65 44.19-306.81 10.27Z" class="colora6a6cc svgShape"></path><path fill="#f48f84" d="M809.61 730c-34.56 30.6-40.75 71-41.12 115.44s-8.59 127.91-16.17 148.13c-4.51 12-77.33 44-164 90.66l27 42.67s135.68-32 203.68-61.33c10.38-4.49 25-24.81 26.66-36 6.47-44.61 20.16-149.1 20.46-158.89.35-11.85 13.48-36.68 13.48-36.68Z" class="colorf48f84 svgShape"></path><path fill="none" stroke="#bc5151" stroke-linecap="round" stroke-linejoin="round" stroke-width="1.83" d="M862.32 901.9s4-53.95 9.3-65.66M1108.26 858.82s-7.59-66.73-14.6-88.21M908.08 920.92s56.32 1.73 100.32-30.3" class="colorStrokebc5151 svgStroke"></path><path fill="#dd7d76" d="m981.41 566.14-82.68 11.28 1.27 79.72c16.42 8.6 76.18 3 86.11-59.69Z" class="colordd7d76 svgShape"></path><path fill="none" stroke="#bc5151" stroke-linecap="round" stroke-linejoin="round" stroke-width="1.83" d="M1002.26 776.21s16.64 62.07 20.61 77.77" class="colorStrokebc5151 svgStroke"></path><path fill="#d67972" d="M858 554.84s-12.61-6-17 1.32c-4.63 7.75 1.89 28.54 23 25.85 0-.01 1.38-12.01-6-27.17Z" class="colord67972 svgShape"></path><path fill="none" stroke="#d85b5b" stroke-linecap="round" stroke-linejoin="round" stroke-width="1.07" d="M843.36 562.26a5.75 5.75 0 0 1 6.45-6c3.93.14 7.23 13.35 7.23 13.35s-3.77.43-4 3.35a5.54 5.54 0 0 0 1.56 4.5s-6.63-1.08-9.71-5.89" class="colorStroked85b5b svgStroke"></path><path fill="#242638" d="M984 552.25s-22.38-19.45-30.61-64c0 0-20.59-3.63-33.4-.29s-26.46 16.82-52.44 19.6-40.23-14.72-40.23-14.72a76.7 76.7 0 0 0 8.2-1.18s-9-7.5-20.33-21.77c0 0 6.58.28 30.83-7.16 0 0-8.32-4.93-13.32-11.91a138.31 138.31 0 0 0 45.3-6.71c24.64-7.91 57-17.83 74.34-9.34s18.44 10.57 18.44 10.57-8.15-17.62-15.83-20.42c0 0 18.36 4.89 22.1 22 0 0 10.05 0 15.37.8s-12 2.83-12 2.83 37 42.12 11.49 112.62Z" class="color242638 svgShape"></path><path fill="#bc5151" d="M912.22 594.89a.82.82 0 0 0 .65-.46c1.07-2 .9-3.58-.63-5.66-.82-1.12-2.22-1.08-3.36-1h-.94l-1-.07a17.11 17.11 0 0 1-5.2-.84c-1.65-.65-3.34-2.14-3.39-4A7.47 7.47 0 0 1 899 580l.09-.22a50.57 50.57 0 0 0 1.75-30.55.87.87 0 0 0-1-.62.85.85 0 0 0-.61 1 48.89 48.89 0 0 1-1.69 29.51l-.09.22a9.13 9.13 0 0 0-.83 3.5c.08 2.66 2.31 4.71 4.48 5.56a18.55 18.55 0 0 0 5.72 1l1 .07a10.15 10.15 0 0 0 1.11 0c.81 0 1.64-.05 1.92.34 1.14 1.55 1.25 2.41.5 3.87a.85.85 0 0 0 .37 1.15.88.88 0 0 0 .5.06Z" class="colorbc5151 svgShape"></path><path fill="#242638" d="M970.76 445.38s-14.51-18.38-35.12-22.85-57.85 7.33-73.3 4.1c0 0 12.9 12.31 37.15 15.17a260.86 260.86 0 0 1 43.76 9.09ZM853.87 505.27s-2.83 32.31-2.25 49.2c0 0-12.23-44.8-7.54-58.13s9.79 8.93 9.79 8.93ZM951 530.78c2.37 3-5.81 3.17-10.91 2.87s-15.59 3.88-19.78 4.15-6.67-6.46.11-8.62 24.33-6.27 30.58 1.6ZM857.73 547.8c-1.11 3.62 6.58.82 11.21-1.33s15.93-2.11 19.92-3.39 3.84-8.46-3.26-8-24.91 3.1-27.87 12.72Z" class="color242638 svgShape"></path><path fill="#bc5151" d="M921 616c-8.53 1.64-13.28-2.12-13.5-2.3a.86.86 0 0 1 1.08-1.33c.21.17 5.31 4.08 14.58 1.32.38-.22.93.12 1.07.57a.85.85 0 0 1-.56 1.07c-.93.24-1.82.46-2.67.67Z" class="colorbc5151 svgShape"></path><path fill="#242638" d="M940.88 549.37c-.75-6.53-3.47-11.59-6.08-11.29s-4.13 5.83-3.38 12.36 3.47 11.58 6.09 11.28 4.12-5.83 3.37-12.35ZM884.6 558.17c-.84-6.51-3.64-11.52-6.25-11.19s-4 5.89-3.2 12.41 3.65 11.53 6.25 11.19 4.04-5.89 3.2-12.41Z" class="color242638 svgShape"></path><path fill="#d85b5b" d="M943.79 565.61c-7.28 2.07-12.17-1.31-12.4-1.48a.7.7 0 0 1 .81-1.14c.24.16 5.81 3.94 13.87.29a.68.68 0 0 1 .93.34.71.71 0 0 1-.35.93 20.17 20.17 0 0 1-2.86 1.06ZM881.51 574.6a12.65 12.65 0 0 1-6.2.17.7.7 0 0 1 .3-1.37c6.88 1.5 11.4-3.82 11.44-3.88a.7.7 0 0 1 1.08.9 14.37 14.37 0 0 1-6.62 4.18Z" class="colord85b5b svgShape"></path><path fill="#f28d82" d="M975.69 550.81s-3.43-22.29 20.6-16.9c9.54 2.15 13 27.46-12.06 34.35 0 0-9.16-.98-8.54-17.45Z" class="colorf28d82 svgShape"></path><path fill="none" stroke="#d85b5b" stroke-linecap="round" stroke-linejoin="round" stroke-width="1.07" d="M999.41 541.5s-3.83-8.87-16.14-3.55c-5.83 2.52-4.75 13.62-4.75 13.62s2.68-2.83 5.34-.12-.28 6.46-.17 7.33 11-.46 14.25-6" class="colorStroked85b5b svgStroke"></path><path fill="#ffffff" d="M861.37 483.29c-.14-.2-.1-.13 0 0Z" opacity=".25" class="colorfff svgShape"></path><path fill="#ffffff" d="M905.18 494.68c-15.37 0-31.27-2-43.49-11.06a1.4 1.4 0 0 1-.32-.33 144.74 144.74 0 0 0 48-14.59l-30.65-12.08 46.35-17a84.24 84.24 0 0 0-18-16.95c10.63-1.31 21-2 28.9-.28a50.67 50.67 0 0 1 11.85 4.25 74.6 74.6 0 0 0-13.58 4.59 44.57 44.57 0 0 1 10.56 13.95 168.83 168.83 0 0 1-36.41 11.16 37.75 37.75 0 0 0 21.26 13.43A83.57 83.57 0 0 1 905 482.05a39.21 39.21 0 0 0 13.65 6.32c-4.2 1.36-8.56 3.7-13.47 6.31Z" opacity=".25" class="colorfff svgShape"></path><path fill="none" stroke="#242638" stroke-linecap="round" stroke-linejoin="round" stroke-width="1.13" d="m898.19 607.99 42.85-5.35" class="colorStroke242638 svgStroke"></path><path fill="none" stroke="#bc5151" stroke-linecap="round" stroke-linejoin="round" stroke-width="1.83" d="M842 721s49.23-1.58 85 .8 48.43.79 54 4M1095.87 707.29s-64.91 14.89-76.82 15.48a45 45 0 0 0-20.25 6" class="colorStrokebc5151 svgStroke"></path><path fill="#d86e66" d="M960.14 873.51a10.82 10.82 0 0 1-9.16 4.72 3.84 3.84 0 0 1-2.21-.61c-1.44-1.07-1.12-3.47.16-4.72s3.14-1.66 4.9-2a6.8 6.8 0 0 1 3.35-.1 2.34 2.34 0 0 1 1.76 2.53M1083.42 851.47a10.82 10.82 0 0 1-9.16 4.72 3.77 3.77 0 0 1-2.21-.61c-1.44-1.07-1.12-3.47.16-4.72s3.14-1.65 4.9-2a6.8 6.8 0 0 1 3.35-.1 2.36 2.36 0 0 1 1.76 2.54" class="colord86e66 svgShape"></path><path fill="#242638" d="M1058.8 975.21c-.23-1-2.76-1.17-5.63-.47s-5 2-4.79 3 2.76 1.17 5.63.47 4.99-2.04 4.79-3Z" class="color242638 svgShape"></path><path fill="#f48f84" d="M1252.32 897.57c33.33 6.66 12-5.34 200-12l-22.67 53.33s-198.66 62.67-237.33 13.33-4-52-4-52Z" class="colorf48f84 svgShape"></path><path fill="#0284c7" d="M780.32 1548.23s72-344 117.33-378.66 247-147 264-173.34 272-117.33 320-133.33 173.34 8 208 50.67 80 120 136 157.33 200 72 205.34 96c0 0-400 10.67-429.34 21.33s-37.33 344-37.33 344-80 53.34-184 34.67-282.67-133.33-386.67-112-133.33 88-213.33 93.33Z" class="color7868a5 svgShape"></path><path fill="#f48f84" d="M622 1122.45s-67.06-5.09-76.62-12.89-26.83-11.1-26.83-11.1l42-44.87L625 1075Z" class="colorf48f84 svgShape"></path><path fill="#f48f84" d="M620.77 1125.43c-8.17 4.3-61.41 13.09-76.39 11.14s-53.14-4.65-53.7-8.35 9.22-8.51 23.38-6.43 44.35-3.69 42.22-6.72-40.67-8.19-45.19-7.52-39.86 16.87-42.58 12.66 29.91-21.68 37.63-26.19 22.51-3.78 22.51-3.78-21.32-2.27-26.25-1.53-37.28 25.71-41.07 20 24.56-23.81 34.49-30.33 43.84-1.51 43.84-1.51-32.32-5.67-35.38-6.47-35.71 13.73-37.74 8.58 28.51-19.79 40-21.5 47 5.56 47 5.56-26-11.22-30.84-12.59-20.73-1.1-21.4-5.62 14.22-5.9 39.69 1.62a300.81 300.81 0 0 1 46.36 18.25Z" class="colorf48f84 svgShape"></path><path fill="#0284c7" style="mix-blend-mode:multiply" d="M1463.6 1485.52c-16.84 9.86-37.38 11.53-56.78 9.35-59.9-6.71-110.15-46.08-164-73.21a423.56 423.56 0 0 0-114.3-38.36c40.45-11.4 83.33-.78 125.24 2.2 62.11 4.41 126.48-9.11 177.87-44.25s88.34-93 91.81-155.21c.87-15.62-.16-32 6.48-46.16 13.13-28 49.62-35.3 80.51-33.86a281.46 281.46 0 0 1 77.89 14.81l-68.54 4.8c-21.14 1.49-44.19 3.79-59.31 18.64-13.35 13.09-17.2 32.8-20.23 51.25q-12.59 76.68-21.3 153.92c-3.89 34.55-7.49 70.16-23.76 100.88-7.46 14.12-17.79 27.13-31.58 35.2ZM1232.24 1077.91c29.43-2.52 58.35-9.27 87.73-12.21a342.19 342.19 0 0 1 150.25 18.79c10.5 3.82 22 8.2 32.52 4.55s16.37-20 7-26a402.24 402.24 0 0 0-64.32-47.36c-13.84-8.21-28.49-15.69-44.37-18.29-33.37-5.48-65.87 11-96.67 25a755.56 755.56 0 0 1-168.56 53.71c32.08 2.27 64.35 4.57 96.42 1.81Z" opacity=".45" class="color7868a5 svgShape"></path><path fill="#b4ac15" d="M2296.81 1089c-12.81-3.48-42.85-4.68-62.7-5.09q-1.4-2-2.68-3.63c-4.41-5.67-9.91-13-15.82-21.48l61.55-7.85-75.16-12.52c-27.2-43.13-53.55-100.33-24.94-126.61 21.93-20.14 58.4-6.14 93.91 25.42l2.19 81.16 21.56-57.24a351.14 351.14 0 0 1 42.18 59.21l-11.17 58.35 21.14-39.37c.36.74.73 1.46 1.08 2.19 2.51 5.28 4.84 10.59 7 15.91l-24.95 70.17 34.52-44.33c3.64 11.31 6.61 22.51 9 33.39l-27.3 55.42 31.65-31.15c7.27 51.29.48 91.35-13.42 96.18-42.45 14.77-93.33-93.71-123-142.09 23.11-3.5 55.36-6.04 55.36-6.04Z" class="colorb4ac15 svgShape"></path><path fill="none" stroke="#847b0b" stroke-linecap="round" stroke-linejoin="round" stroke-width="4.26" d="M2204 938.43s124.76 155.86 152.17 298.81 22.46 307.6 22.46 307.6" class="colorStroke847b0b svgStroke"></path><path fill="#d1c63b" d="M2443.69 1199.92 2415.8 1177c-.92-7.26-1.69-14.85-2.31-22.69l40.52 21-41.83-42.7a694.16 694.16 0 0 1 1.26-79.22l60.78 39.71-56.94-77c4.36-32.53 11.31-62.94 21.11-87.1l39.47 35.29c-5.28-34.51-10.43-58.48-14.89-75.09 9.51-9.22 20.44-14.19 32.89-13.47 41.43 2.42 56.86 61.94 54.85 133.21-15.61 24.82-41.14 64.43-49 71l45.42-24.25c-11.83 96.89-50.26 197.34-96.33 200.5-13.33.92-23.67-19.47-30.38-51.2Z" class="colord1c63b svgShape"></path><path fill="none" stroke="#847b0b" stroke-linecap="round" stroke-linejoin="round" stroke-width="4.26" d="M2496.39 916.17s-16.58 197.08-45.58 340.05-50.78 185.83-38.54 308" class="colorStroke847b0b svgStroke"></path><path fill="#b4ac15" d="M2566.45 1238c-.6 17.36-1.36 50.28-1.36 50.28l41.68-58c67.77-2.9 131.36 27.64 128 71.89l-80.46-26.73 57.42 55c-17.38 5.47-49.59 9.46-109.79 9-1.87 0-3.64 0-5.45.06l-45.54-34 26.05 34.9a200.65 200.65 0 0 0-30.28 5l-33.9-24.52 21.12 28.22c-45 15-54.45 39.86-67.88 17.61C2450 1340 2501 1262.44 2566.45 1238Z" class="colorb4ac15 svgShape"></path><path fill="none" stroke="#847b0b" stroke-linecap="round" stroke-linejoin="round" stroke-width="4.26" d="M2651.68 1277c-50 4.91-142.43 13-182.42 88s-50.09 198-50.09 198" class="colorStroke847b0b svgStroke"></path><path fill="#b4ac15" d="M2249 1326.4c.48 13.83 1.08 40.07 1.08 40.07l-33.22-46.25c-54-2.32-104.71 22-102 57.3l64.12-21.31-45.79 43.79c13.85 4.37 39.53 7.54 87.51 7.21h4.35l36.29-27.08-20.78 27.87a159 159 0 0 1 24.14 4l27-19.56-16.84 22.5c35.84 12 43.4 31.77 54.11 14 12.86-21.2-27.84-83.04-79.97-102.54Z" class="colorb4ac15 svgShape"></path><path fill="none" stroke="#847b0b" stroke-linecap="round" stroke-linejoin="round" stroke-width="3.39" d="M2181.06 1357.51c39.81 3.92 113.53 10.39 145.4 70.19s39.93 157.87 39.93 157.87" class="colorStroke847b0b svgStroke"></path><path fill="#847b0b" d="m2486.46 1486.67-8.17-26.49a138.91 138.91 0 0 1 10.63-13.48l14.39 27-6.7-34.88c17.55-16.49 39.81-27.62 61.91-21.47l-29.79 46.79 53.5-32.72c1.2 1.14 2.39 2.32 3.58 3.6 61.88 66.59-103.17 85.06-119.64 73.92-7.91-5.35-3.52-23.68 8.16-42.7Z" class="color847b0b svgShape"></path><path fill="none" stroke="#595106" stroke-linecap="round" stroke-linejoin="round" stroke-width="4.26" d="M2526 1470.55s-56.43 24.86-66.21 36.34-26.53 32.27-21.83 66.26" class="colorStroke595106 svgStroke"></path><path fill="#945661" d="M2476.29 1533.4h-172.47v41.74a253.14 253.14 0 0 0 38.32 133.93H2438a253.15 253.15 0 0 0 38.33-133.93Z" class="color945661 svgShape"></path><path fill="#945661" d="M2318.09 1703.48H2462v2.52a19.09 19.09 0 0 1-19.09 19.09h-105.74a19.09 19.09 0 0 1-19.09-19.09v-2.47l.01-.05Z" class="color945661 svgShape"></path></g></svg></g></svg>