<svg id="SvgjsSvg1001" width="550" height="550" xmlns="http://www.w3.org/2000/svg" version="1.1" xmlns:xlink="http://www.w3.org/1999/xlink" xmlns:svgjs="http://svgjs.com/svgjs"><defs id="SvgjsDefs1002"></defs><g id="SvgjsG1008"><svg xmlns="http://www.w3.org/2000/svg" data-name="Layer 1" viewBox="0 0 3000 2700" width="550" height="550"><defs><clipPath id="a"><circle cx="1520.94" cy="1384.57" r="1112.77" fill="none"></circle></clipPath></defs><path fill="#0284c7" d="M245.4 206.67c20.35-12.66 45.84 6.9 58.32 27.37 31.84 52.23 39.9 123.63 92.24 155.29 10.31 6.23 21.82 10.45 31.51 17.61 16.21 12 25.77 31.12 31 50.58 10.65 39.17 6.15 80.65 9.24 121.11s16.67 84.18 51.3 105.33c16.76 10.24 37.09 14.26 52.42 26.53 31.9 25.53 29.55 73.78 25.3 114.42s-3.57 89.83 30.77 112c9.26 6 20.17 9.2 29 15.85 21.15 16 24.11 46.13 25 72.64q4.83 145.83-1.45 291.75c-.33 7.7-.86 15.93-5.53 22.08-6 7.9-16.83 9.93-26.64 11.38l-74.3 11c-13.36 2-27.54 3.84-39.93-1.52-13.41-5.8-22-18.86-29.63-31.3q-50.61-82.32-93.28-169.17c-17.53-35.69-34.43-75.32-25.38-114 4.74-20.28 16.36-38.63 19.61-59.2 12.09-76.56-89.77-125.38-103.17-201.72-8.64-49.2 21.85-99.2 12.55-148.28-10.73-56.57-72.3-102.08-59.66-158.25 4.17-18.56 16.26-34.41 21.92-52.57 17.56-56.25-29-110.58-43.2-167.76-4.54-18.29-3.91-41.27 11.99-51.17Z" class="colorb6b1fc svgShape"></path><path fill="none" stroke="#242638" stroke-linecap="round" stroke-linejoin="round" stroke-width="3.96" d="M272.6 247.22c42.76 68.34 86.91 141.17 88.3 221.77.26 15-1 30.23 1.8 45 8.39 44.31 50.35 74.62 66.47 116.74 16.81 43.92 3.39 94.6 18.12 139.25 13.9 42.11 50.18 72 79 105.71S578 956.88 559 997c-8.83 18.61-25.62 32.69-33.56 51.7-15.26 36.51 6.2 77.19 27.6 110.47 36.41 56.64 76.4 117.9 71 185" class="colorStroke242638 svgStroke"></path><path fill="none" stroke="#242638" stroke-linecap="round" stroke-linejoin="round" stroke-width="3.96" d="M439.27 735.61c-2-12.55-4.34-25.9-13-35.17-13-13.89-36.17-14.17-49.22-28.06C365 659.62 365.5 640 361.08 623.1a82.61 82.61 0 0 0-47.48-54.54M302.18 427.87C308 440 321 446.49 333 452.54s24.76 13.62 29 26.36M423.23 483.37c-9.76 41.26 10.89 86-2.41 126.3M499.41 846.17a88.25 88.25 0 0 0-63.35-25.64c-6.72.13-13.43 1-20.14.74-20.35-.89-39.59-13.45-49.36-31.33-2.57-4.68-6.41-10.65-11.55-9.17M535.3 727.5c-13.09 21.83-12.6 49.08-9.18 74.3s9.35 50.65 5.79 75.85" class="colorStroke242638 svgStroke"></path><path fill="#383649" d="M90 1029.91c11.42-14.43 34-3.4 47.5 10.95 34.58 36.62 56.83 93.69 101.1 109.35 8.72 3.08 17.83 4.28 26.32 8.24 14.23 6.64 25.41 20.48 33.65 35.42 16.59 30.07 23 65 34.6 97.68s31.28 65.87 60.63 76.4c14.2 5.1 29.48 4.38 43.15 11.43 28.43 14.67 38 54.78 44.38 89s18.32 74.51 47.68 85.9c7.92 3.08 16.37 3.57 24.11 7.3 18.64 9 27.71 33.13 34.48 54.74q37.23 118.88 66.64 240c1.55 6.4 3.08 13.27 1.22 19.24-2.4 7.68-9.58 11.49-16.17 14.62l-49.88 23.7c-9 4.27-18.55 8.61-28.54 6.65-10.8-2.11-19.88-11.14-28.16-19.85q-54.81-57.63-105.06-120.55c-20.65-25.86-41.76-55.08-44.36-88.69-1.36-17.59 2.59-35 .11-52.51-9.22-65.3-92.42-85.26-119.58-145.34-17.51-38.72-7.59-85.83-25.54-124.32-20.68-44.35-74.69-69.57-78.8-118.22-1.35-16.08 3.5-31.49 3.28-47.53-.65-49.69-46.07-85.14-69.39-129.3-7.37-14.02-12.3-33.03-3.37-44.31Z" class="color383649 svgShape"></path><path fill="none" stroke="#fff" stroke-linecap="round" stroke-linejoin="round" stroke-width="2.63" d="M156 1120.45c30.84 30.3 63.44 64 68.71 107 1.3 10.67.83 21.55 3 32.08 10.58 51.61 77.44 74.76 92.26 125.32 4.51 15.39 3.65 32 8.66 47.27 9.93 30.22 39.95 48.26 67.1 64.85s56 38 60.79 69.43c1.88 12.44-.36 25.09-.77 37.67a131 131 0 0 0 39.25 97.02c10.57 10.25 22.91 18.7 32.41 30 13.77 16.31 20.56 37.22 27 57.55q14.32 44.91 28.64 89.81" class="colorStrokefff svgStroke"></path><path fill="none" stroke="#fff" stroke-linecap="round" stroke-linejoin="round" stroke-width="2.63" d="M394.15 1412c-3.31 9.49-5.47 19.58-4.47 29.58 2.11 21.27 18.09 39.78 17.91 61.15M267.7 1194.55c9.89 24 2.93 51.29 3.57 77.28a131 131 0 0 0 19.71 65.8M175.17 1242c16.29 18.73 45.83 21.81 61.27 41.24M290.93 1478c19 25 49.44 38.26 79.11 48.52s60.77 18.9 85.69 38c.78.6 1.65 1.45 1.42 2.41s-2.19.62-1.7-.24M524.13 1579.53c-3.45 21.44-13.19 41.27-20.33 61.78s-11.64 43.26-4.42 63.74M423.72 1731.62c2.83 4.29 7.07 7.44 11.4 10.21 29.52 18.89 65.63 23.44 99.12 33.76 9.8 3 20.93 8.26 22.6 18.37" class="colorStrokefff svgStroke"></path><path fill="#0284c7" d="M2889.48 841c23.49 4.77 28.58 36.5 23.59 60-12.72 59.82-55.9 117.26-39.6 176.22 3.21 11.61 8.68 22.59 10.81 34.44 3.55 19.85-2.65 40.32-12.17 58.09-19.16 35.78-50.91 62.84-76.46 94.38s-45.69 72.63-35.05 111.79c5.15 19 17.17 35.84 19.89 55.28 5.65 40.47-29.2 73.92-60.19 100.55s-64.29 62.84-54.53 102.51c2.63 10.7 8.34 20.54 10.17 31.41 4.38 26.16-14.16 50.09-31.73 70q-96.64 109.32-201.42 211.07c-5.53 5.37-11.58 11-19.19 12.25-9.78 1.63-19-4.34-27.18-10l-61.53-43c-11.07-7.74-22.66-16.12-28-28.53-5.76-13.42-3-28.8 0-43.1q19.74-94.59 48.37-187c11.77-38 26.71-78.39 59.88-100.32 17.37-11.49 38.42-16.84 54.91-29.56 61.37-47.35 20.85-152.79 63.54-217.48 27.52-41.7 84-57.1 111-99.17 31.06-48.48 17.56-123.84 65.32-156 15.78-10.63 35.45-13.85 52-23.16 51.39-28.83 54.9-100.26 83.81-151.61 9.16-16.52 25.4-32.79 43.76-29.06Z" class="color7564e2 svgShape"></path><path fill="none" stroke="#242638" stroke-linecap="round" stroke-linejoin="round" stroke-width="3.96" d="M2881.41 889.15c-15.86 79-33.79 162.3-88.13 221.84-10.14 11.1-21.48 21.28-29.6 33.94-24.33 38-14.65 88.81-31.86 130.5-17.94 43.47-62.5 71.09-82.46 113.67-18.82 40.15-13 86.8-15.18 131.08s-18.16 94.55-59.48 110.62c-19.2 7.47-41.08 6.17-59.91 14.53-36.16 16.07-48.5 60.37-55.81 99.26-12.42 66.18-25.42 138.17-75.45 183.24" class="colorStroke242638 svgStroke"></path><path fill="none" stroke="#242638" stroke-linecap="round" stroke-linejoin="round" stroke-width="3.96" d="M2667.14 1358.61c7.17-10.48 14.63-21.81 14.68-34.51.06-19.06-16.56-35.15-16.51-54.2.05-17.51 13.83-31.43 22.26-46.78a82.59 82.59 0 0 0 2.95-72.24M2778.84 1040.76c-4.09 12.79.91 26.49 5.46 39.11s8.65 26.91 3 39.08M2828.71 1164.24c-35.43 23.29-51.17 70-88.49 90.15M2634.92 1480.27a88.26 88.26 0 0 0-28.45-62.14c-5-4.53-10.46-8.48-15.14-13.3-14.18-14.62-19.53-37-14.36-56.67 1.35-5.17 2.65-12.14-2.09-14.59M2742.5 1418.66c-24.5 6.88-42.86 27-57.7 47.7s-28 43.24-47.87 59.11" class="colorStroke242638 svgStroke"></path><path fill="#252049" d="M2764.74 421.71c18.41-.3 24.13 24.13 21.61 43.7-6.44 49.95-36.52 103.31-20.6 147.5 3.14 8.7 8 16.5 10.29 25.58 3.87 15.22.24 32.63-6.1 48.47-12.77 31.89-35.75 59-53.69 88.64s-31.16 65.92-20.73 95.31c5.05 14.21 15.28 25.58 18.48 40.63 6.65 31.29-18.35 64.06-40.77 90.71s-46.07 61.36-36.3 91.31c2.64 8.08 7.61 14.93 9.63 23.28 4.86 20.1-8.1 42.43-20.54 61.35q-68.42 104.08-143.54 203.56c-4 5.25-8.31 10.79-14.11 13.13-7.46 3-15-.14-21.55-3.26l-49.94-23.62c-9-4.25-18.4-8.9-23.22-17.87-5.2-9.7-4-22.45-2.46-34.38q9.89-78.9 26.76-157.64c6.93-32.36 16.18-67.21 40.54-90.5 12.76-12.19 28.71-20.14 40.71-33.17C2523.9 986 2486.67 909 2516 849.88c18.88-38.07 61.63-60.22 80-98.49 21.23-44.1 6.55-101.86 41.6-135.85 11.58-11.23 26.58-17.24 38.86-27.56 38-32 36.71-89.58 56.12-135.59 6.17-14.63 17.78-30.39 32.16-30.68Z" class="color252049 svgShape"></path><path fill="none" stroke="#fff" stroke-linecap="round" stroke-linejoin="round" stroke-width="2.63" d="M2736.48 530.14c-3.92 43.06-9.38 89.66-39.26 120.91-7.43 7.77-16.16 14.3-22.94 22.64-33.24 40.87-8.81 107.28-38.56 150.76-9 13.24-22.47 23.11-31.09 36.64-17.1 26.82-12.05 61.48-7.7 93s6.1 67.42-15.23 91c-8.45 9.34-19.66 15.62-29.65 23.26a131.08 131.08 0 0 0-50.26 91.85c-1.23 14.68 0 29.58-2.65 44.06-3.9 21-15.78 39.48-27.41 57.37l-51.37 79" class="colorStrokefff svgStroke"></path><path fill="none" stroke="#fff" stroke-linecap="round" stroke-linejoin="round" stroke-width="2.63" d="M2661.67 899.06c-9.44 3.45-18.62 8.17-25.73 15.27-15.12 15.11-19.32 39.2-36 52.59M2749.87 663.5c-12.35 22.89-37.85 34.75-57.56 51.71a130.92 130.92 0 0 0-38.43 56.92M2654.53 622c-4.18 24.46 12.14 49.27 6.88 73.53M2545.2 861c-7.28 30.54 1.69 62.48 12.55 91.94s23.85 59 24.85 90.39c0 1-.08 2.2-1 2.62s-1.87-1.3-.89-1.46M2614.31 1105.76c-18.78 10.91-40.29 15.92-60.68 23.39s-40.85 18.39-52.14 36.94M2433 1124.37c-1.53 4.9-1.28 10.18-.69 15.28 4.09 34.82 23.43 65.64 36.65 98.1 3.87 9.5 6.86 21.43.09 29.12" class="colorStrokefff svgStroke"></path><g clip-path="url(#a)" fill="#000000" class="color000 svgShape"><circle cx="1527.26" cy="1387.69" r="1112.77" fill="#746f96" class="color746f96 svgShape"></circle><path fill="#383649" d="M2550.58 1926.22h-756.39l-1321.61-20.78s220.26 390.66 519.5 511.18 1068.09 265.99 1558.5-490.4Z" class="color383649 svgShape"></path><rect width="798.54" height="592.32" x="655.45" y="818.64" fill="#ffffff" rx="63.62" class="colorfff svgShape"></rect><path fill="#383649" d="M458.78 1398.51c-1.93-43.23 9.7-87.49 35.43-122.29s65.95-59.31 109.06-63c28.91-2.47 59.32 3.94 86.25-6.85 17.92-7.18 32.09-21.18 45.74-34.84 37.67-37.69 76.39-77 95.19-126.85 16.36-43.39 17.89-94.84 50.07-128.23 28.51-29.61 72.81-36 113.65-40.73 39.3-4.51 79.09-8.93 118.3-3.66s78.4 21.3 104 51.47c28.06 33.09 36.41 78.71 36.69 122.09s-6.43 86.72-3.88 130c3.15 53.56 20.43 106.38 15.8 159.83-5.29 61-39.75 117.44-87.56 155.62s-108 59-168.76 65.71c-33.7 3.73-69 3.09-100-10.65-20.55-9.11-38.21-23.51-56.61-36.42-45.33-31.79-100.48-55.75-155-46.3-31 5.37-59.17 21.07-88.56 32.41s-63 18.23-91.94 5.75c-38.18-16.42-56.01-61.52-57.87-103.06Z" class="color383649 svgShape"></path><rect width="798.54" height="592.32" x="1530.77" y="818.64" fill="#ffffff" rx="63.62" class="colorfff svgShape"></rect><path fill="#fca19f" d="M964.09 891.08c94.11-29 224.12-31.49 244.62 89.76 6.55 38.69.84 74.53-13.19 107-30 69.48-102.48 105.43-170.27 138.77-60.23 29.63-132.1 58-157.11-19.93-.95-3-6.47-66.78-6.37-68.51.3-5.43.69-13.66-1.52-13.38-5.4.69-20.8-26.38-16.11-29.37 24.92-15.9 24-16.31 27.39-22.54 5.56-10.25 8.27-21.92 9.44-33.46 1.91-18.76.29-37.83 3.28-56.46 6.75-42.21 38.99-79.29 79.84-91.88Z" class="colorfca19f svgShape"></path><path fill="#383649" d="M914.23 987.83a60.07 60.07 0 0 1 34.26 21.52c1.73 2.26 3.3 4.74 3.53 7.39a5.54 5.54 0 0 1-4 6c-3.75-5.7-11-8.61-17.73-11.11l-12.89-4.79c-4.53-1.68-9.3-3.52-12.42-7s-3.72-9.18 0-11.53c2.54-1.55 6.08-1.17 9.25-.48Z" class="color383649 svgShape"></path><ellipse cx="914.4" cy="1052.89" fill="#333333" rx="23.73" ry="12.63" transform="rotate(-87.39 914.406 1052.888)" class="color333 svgShape"></ellipse><ellipse cx="918.2" cy="1105.17" fill="#f97070" rx="28.39" ry="14.59" transform="rotate(-.25 923.478 1111.265)" class="colorf97070 svgShape"></ellipse><path fill="#fca19f" d="m1128.56 1166.78 15 168.29L977 1383.74s26.36-40.91 26.11-61.32 6-112 6-112Z" class="colorfca19f svgShape"></path><path fill="#f97070" d="M1007.53 1235.06c-.86 13.36-1.89 30.27-2.75 45.93 70.15-22 113.84-105.86 113.84-105.86s-64.17-88.85-69.11-37c-4.82 50.63-106.94 111.42-144.64 114.22 28.57 11.87 66.62-.76 102.66-17.29ZM862.77 1156.82s-7.41-8-.83-14.19 48.54 21.6 48.54 21.6-37.84 15-45.25 11.72-2.46-19.13-2.46-19.13Z" class="colorf97070 svgShape"></path><path fill="#333333" d="M912.67 1166.63a2 2 0 0 1-.54-.09c-20.62-7.23-48.84-7.86-49.12-7.86a1.65 1.65 0 0 1-1.61-1.68 1.72 1.72 0 0 1 1.67-1.61c1.18 0 29 .63 50.15 8a1.65 1.65 0 0 1-.55 3.2Z" class="color333 svgShape"></path><path fill="#fca19f" d="M1143.61 1335.07s38.35 32 106.36 64.92 118.46 63.62 107.49 175.5-100.91 425.6-144.79 443.15-500.18-103.11-500.18-103.11-57 30.71-85.56 30.71-74.58 17.55-74.58 17.55-30.72 37.3-39.49 37.3 0-24.13 0-24.13-21.94 19.74-32.91 11 0-29.62 0-29.62-11 9.87-20.84 2.19 76.78-89.94 99.82-100.91 34-8.78 34-8.78 4.39-43.87 15.36-76.78 119.56-334.55 190.86-368.55 184.27-37.3 207.31-76.79 137.15 6.35 137.15 6.35Z" class="colorfca19f svgShape"></path><path fill="#ffffff" d="m1201.71 1522.84-226 109.69L854 1491s-60.33 133.82-82.27 159-2.19 76.79-2.19 76.79l-29.62 106.39 398.18 43.88 65.81-188.67s-12.08-124.96-2.2-165.55Z" class="colorfff svgShape"></path><path fill="#fca19f" d="M592.93 1850.81c11 1.1 142.6-1.09 142.6-1.09l358.68-40.59s54.84 25.23 115.17 9.87c0 0 46.07 47.17 55.95 47.17s-17.55-31.81-17.55-31.81 39.48 35.1 48.26 31.81-5.49-25.23-5.49-25.23 15.36 20.84 20.84 17.55-12.06-36.19-12.06-36.19 29.62 18.64 34 16.45-53.75-93.24-57-93.24-153.56-7.68-161.24-7.68-379.52-16.45-379.52-16.45Z" class="colorfca19f svgShape"></path><path fill="none" stroke="#f97070" stroke-linecap="round" stroke-linejoin="round" stroke-width="3.29" d="M592.93 1850.81s132.72-15.35 137.11-15.35 84.46 5.48 84.46 5.48M1157.28 1823.39s37.57 4.39 52.1-4.39c0 0 46.35 49.64 55.95 47.17s-14.26-28.79-14.26-28.79 28.79 25.5 33.73 25.5M1307.83 1793s-24.41-43-31.54-47.44-91-4.38-91-4.38M768.43 1722.48s-35.65-5.49-85.55 1.09" class="colorStrokef97070 svgStroke"></path><path fill="none" stroke="#fff" stroke-linecap="round" stroke-linejoin="round" stroke-width="6.58" d="m1240.1 1393.41-43.88 148.08M852.89 1502.55l18.1-121.75" class="colorStrokefff svgStroke"></path><path fill="#ffa192" d="M2159.93 1092.15c-.28-20.52 7.05-40.54 7.5-61.05 1-46.47-26-92.41-67-113.81-94.38-49.29-232.08-77.23-277.43 48.51-14.48 40.11-15.39 79.57-6.8 117 7.79 34 24.86 63 46.92 88.81A72.85 72.85 0 0 1 1874 1249l-38.87 85.65 10.58 32.68c98.26 79.76 147.3 96.92 147.3 96.92l-8.25-51.84 25.71-119.23c47.46 31.16 96.25 48.63 128.65-12.3 11.77-22.13 18.86-54.5 22-79.38.74-5.87 4.93-17.51 7.21-16.78 5.61 1.79 22-12.42 22.84-18.41 1.51-11.25-30.63-28.6-31.24-74.16Z" class="colorffa192 svgShape"></path><path fill="#f97070" d="M2100.09 1318.66c-33.65-9.65-125.28-86.83-123.93-155l-4.39 6.83s-8.12 112.9 32.74 149.41c1.75-8.6 5.94-22.76 7.58-25.23 32.91 21.33 62.97 32.51 88 23.99ZM1980.64 1117a35.72 35.72 0 0 0 4.61 11.71c5.52 9.42 15.37 17.77 26.15 16.26 6.82-1 12.65-5.78 16.37-11.63s5.62-12.64 7.25-19.38a8.57 8.57 0 0 0-1.84-9.27c-4.7-6.26-10-12.5-17.07-15.68a25.92 25.92 0 0 0-26.09 3.27 26.33 26.33 0 0 0-9.38 24.72Z" class="colorf97070 svgShape"></path><path fill="#242638" d="M2137 1102.53c1.48-14-3.37-26.07-10.82-26.85s-14.7 10-16.18 24 3.37 26.06 10.82 26.85 14.65-9.96 16.18-24Z" class="color242638 svgShape"></path><path fill="none" stroke="#242638" stroke-linecap="round" stroke-linejoin="round" stroke-width="4.71" d="M2158 1222.74s-26.25-7.57-56.14 3.5" class="colorStroke242638 svgStroke"></path><path fill="#242638" d="M2097.12 1063.8c4.54 2.91 10.43.5 15.51-1.3a60.78 60.78 0 0 1 19.76-3.47c3.25 0 6.52.22 9.72-.37s6.39-2.12 8.09-4.89c2.76-4.5.45-10.78-3.81-13.9s-9.85-3.73-15.13-3.62a68.3 68.3 0 0 0-24.43 5.06c-4.68 1.91-9.37 4.56-11.91 8.93s-2.05 10.82 2.2 13.56Z" class="color242638 svgShape"></path><path fill="#ffa192" d="M1991.47 1336.37s30.71 48.27 85.55 65.82 147 41.68 182.09 94.33 10.23 437.15 10.23 437.15l-455.57-11.56 4.39 19.75L2191.1 2045s17.55-13.16 100.92-6.58 129.43 13.17 129.43 13.17 6.58 21.93-32.91 21.93-68 6.58-68 6.58 147 41.69 144.79 59.24-92.13-4.39-92.13-4.39 87.75 48.26 83.36 59.23-39.49-6.58-39.49-6.58 19.75 11 19.75 17.55-142.6-26.33-142.6-26.33 68 50.46 65.81 57-195.24-105.3-195.24-105.3-509-26.32-533.09-105.3-103.11-504.57-72.4-570.38 313.71-136 313.71-136Z" class="colorffa192 svgShape"></path><path fill="none" stroke="#f97070" stroke-linejoin="round" stroke-width="6.58" d="m1813.77 1922.11-52.65-322.48M2156.1 1935.73s24-303.2 21.84-342.69" class="colorStrokef97070 svgStroke"></path><path fill="#383649" d="M1224.83 966c-7-37.17-40.26-63.93-74.82-79.29-12.42-5.52-25.37-10-38.82-12-9.13-1.34-18.39-1.49-27.61-1.63-50.52-.8-103.2-1.13-148.63 21-2.25 1.1-4.62 2.37-5.79 4.58-1.3 2.44-.85 5.41-.33 8.12a439.44 439.44 0 0 0 54.34 143.09c25.93 43.42 59.14 82 89 122.82s56.86 85.14 67.77 134.54c2.18 9.86 3.69 19.85 5.21 29.84 11-15 17.5-32.73 23.41-50.36a1157.57 1157.57 0 0 0 57-283.52c.87-12.48 1.57-25.03-.73-37.19Z" class="color383649 svgShape"></path><path fill="#fca19f" d="M1042.88 1083.09a32.78 32.78 0 0 1-6.14 9.83c-6.59 7.62-16.94 13.54-26.5 10.4-6.06-2-10.57-7.33-13-13.23s-5.56-7.39-5.93-13.76c-.09-1.58-.77-5.17-.15-6.64s4.82-5.43 5.9-6.42c5.31-4.88 11.13-9.66 18.14-11.36a23.6 23.6 0 0 1 27.67 31.18Z" class="colorfca19f svgShape"></path></g><path fill="#0284c7" d="M1414.09 713.74a125.69 125.69 0 1 0 114.1-224c-57-29.06-126-10.16-161 41.57l-101.69-51.77 29.85-3.82-3.94-30.84L1188.94 458l49.64 90.59 27.26-14.94-14.46-26.4L1353 559c-21.23 58.76 4 125.68 61.09 154.74Zm14.12-27.74a94.59 94.59 0 1 1 127.22-41.35A94.69 94.69 0 0 1 1428.21 686Z" class="colorb6b1fc svgShape"></path><path fill="#383649" d="M1568.46 405.22a125.68 125.68 0 1 0 3.79 251.34c64-1 116.18-49.92 122.94-112l82.42-1.25.54 35.83 31.1-.47-.54-35.83 44.72-.67-.47-31.09-44.72.67-.57-37.6-31.1.47.57 37.6-82.41 1.24c-8.64-61.85-62.25-109.21-126.27-108.24Zm.46 31.09a94.59 94.59 0 1 1-93.15 96 94.7 94.7 0 0 1 93.15-96Z" class="color383649 svgShape"></path><path fill="none" stroke="#fff" stroke-linecap="round" stroke-miterlimit="10" stroke-width="24.94" d="m1739.12 352.13-470.67 392.74M1268.45 352.13l470.67 392.74" class="colorStrokefff svgStroke"></path></svg></g></svg>